G75*
G70*
%OFA0B0*%
%FSLAX24Y24*%
%IPPOS*%
%LPD*%
%AMOC8*
5,1,8,0,0,1.08239X$1,22.5*
%
%ADD10C,0.1300*%
%ADD11R,0.0512X0.0512*%
%ADD12R,0.0512X0.0512*%
%ADD13R,0.0512X0.0355*%
%ADD14R,0.0355X0.0512*%
%ADD15C,0.0640*%
%ADD16OC8,0.0640*%
%ADD17C,0.0640*%
%ADD18C,0.0740*%
D10*
X006269Y007383D03*
X006269Y013052D03*
X016663Y013052D03*
X016663Y007383D03*
D11*
G36*
X004069Y005160D02*
X003627Y004904D01*
X003371Y005346D01*
X003813Y005602D01*
X004069Y005160D01*
G37*
G36*
X003656Y005876D02*
X003214Y005620D01*
X002958Y006062D01*
X003400Y006318D01*
X003656Y005876D01*
G37*
G36*
X008214Y005287D02*
X008656Y005031D01*
X008400Y004589D01*
X007958Y004845D01*
X008214Y005287D01*
G37*
G36*
X008627Y006003D02*
X009069Y005747D01*
X008813Y005305D01*
X008371Y005561D01*
X008627Y006003D01*
G37*
G36*
X013824Y005787D02*
X014266Y006043D01*
X014522Y005601D01*
X014080Y005345D01*
X013824Y005787D01*
G37*
G36*
X014237Y005071D02*
X014679Y005327D01*
X014935Y004885D01*
X014493Y004629D01*
X014237Y005071D01*
G37*
G36*
X019345Y004904D02*
X018903Y005160D01*
X019159Y005602D01*
X019601Y005346D01*
X019345Y004904D01*
G37*
G36*
X019758Y005620D02*
X019316Y005876D01*
X019572Y006318D01*
X020014Y006062D01*
X019758Y005620D01*
G37*
G36*
X014287Y014223D02*
X013845Y014479D01*
X014101Y014921D01*
X014543Y014665D01*
X014287Y014223D01*
G37*
G36*
X014700Y014939D02*
X014258Y015195D01*
X014514Y015637D01*
X014956Y015381D01*
X014700Y014939D01*
G37*
G36*
X009166Y014675D02*
X008724Y014419D01*
X008468Y014861D01*
X008910Y015117D01*
X009166Y014675D01*
G37*
G36*
X008753Y015391D02*
X008311Y015135D01*
X008055Y015577D01*
X008497Y015833D01*
X008753Y015391D01*
G37*
D12*
X011053Y019430D03*
X011880Y019430D03*
X016704Y010254D03*
X017530Y010254D03*
X006150Y010215D03*
X005323Y010215D03*
D13*
X004707Y009215D03*
X004707Y008506D03*
X014721Y004018D03*
X014721Y003310D03*
D14*
X010022Y004567D03*
X009313Y004567D03*
G36*
X002770Y006441D02*
X002593Y006747D01*
X003036Y007003D01*
X003213Y006697D01*
X002770Y006441D01*
G37*
G36*
X002416Y007055D02*
X002239Y007361D01*
X002682Y007617D01*
X002859Y007311D01*
X002416Y007055D01*
G37*
G36*
X007813Y015989D02*
X007636Y016295D01*
X008079Y016551D01*
X008256Y016245D01*
X007813Y015989D01*
G37*
G36*
X007458Y016603D02*
X007281Y016909D01*
X007724Y017165D01*
X007901Y016859D01*
X007458Y016603D01*
G37*
X009419Y019430D03*
X010128Y019430D03*
G36*
X014719Y015988D02*
X014896Y016294D01*
X015339Y016038D01*
X015162Y015732D01*
X014719Y015988D01*
G37*
G36*
X015073Y016602D02*
X015250Y016908D01*
X015693Y016652D01*
X015516Y016346D01*
X015073Y016602D01*
G37*
X018353Y010239D03*
X019062Y010239D03*
G36*
X020192Y007429D02*
X020369Y007735D01*
X020812Y007479D01*
X020635Y007173D01*
X020192Y007429D01*
G37*
G36*
X019837Y006815D02*
X020014Y007121D01*
X020457Y006865D01*
X020280Y006559D01*
X019837Y006815D01*
G37*
D15*
X010466Y001450D03*
D16*
X010466Y002450D03*
X011466Y002450D03*
X011466Y001450D03*
X012466Y001450D03*
X012466Y002450D03*
D17*
X003574Y013021D02*
X003055Y013321D01*
X003555Y014187D02*
X004074Y013887D01*
X004574Y014753D02*
X004055Y015053D01*
X004555Y015919D02*
X005074Y015619D01*
D18*
X004655Y011989D03*
X013277Y018800D03*
X011112Y003800D03*
X008238Y002422D03*
X008198Y001044D03*
X006309Y001911D03*
X017647Y003643D03*
M02*
