%
M48
M72
T01C0.0354
T02C0.0400
T03C0.1260
%
T01
X6309Y1911
X8238Y2422
X8198Y1044
X11112Y3800
X17647Y3643
X4655Y11989
X13277Y18800
T02
X4815Y15769
X4315Y14903
X3815Y14037
X3315Y13171
X10466Y2450
X10466Y1450
X11466Y1450
X11466Y2450
X12466Y2450
X12466Y1450
T03
X16663Y7383
X16663Y13052
X6269Y13052
X6269Y7383
M30
