G75*
G70*
%OFA0B0*%
%FSLAX24Y24*%
%IPPOS*%
%LPD*%
%AMOC8*
5,1,8,0,0,1.08239X$1,22.5*
%
%ADD10C,0.0600*%
%ADD11OC8,0.0600*%
%ADD12C,0.0600*%
%ADD13C,0.0100*%
%ADD14C,0.0700*%
%ADD15C,0.0240*%
D10*
X010466Y001450D03*
D11*
X010466Y002450D03*
X011466Y002450D03*
X011466Y001450D03*
X012466Y001450D03*
X012466Y002450D03*
D12*
X003574Y013021D02*
X003055Y013321D01*
X003555Y014187D02*
X004074Y013887D01*
X004574Y014753D02*
X004055Y015053D01*
X004555Y015919D02*
X005074Y015619D01*
D13*
X005600Y004981D02*
X006545Y003210D01*
X008198Y001044D01*
X008238Y002422D02*
X009942Y004547D01*
X011112Y003800D02*
X014104Y004115D01*
X017647Y003643D01*
X006309Y001911D02*
X003671Y005769D01*
X002647Y009981D01*
X003315Y013171D01*
X003815Y014037D02*
X004301Y013367D01*
X003750Y012029D01*
X003631Y008840D01*
X005600Y004981D01*
X007293Y014233D02*
X011348Y016714D01*
X013277Y018800D01*
D14*
X013277Y018800D03*
X004655Y011989D03*
X011112Y003800D03*
X008238Y002422D03*
X008198Y001044D03*
X006309Y001911D03*
X017647Y003643D03*
D15*
X011112Y003800D02*
X009942Y004547D01*
X008513Y005651D01*
X007135Y007737D01*
X006072Y010218D01*
X007175Y012777D01*
X007293Y014233D01*
X004815Y015769D01*
X004315Y014903D02*
X004891Y013958D01*
X004655Y011989D01*
M02*
