G75*
G70*
%OFA0B0*%
%FSLAX24Y24*%
%IPPOS*%
%LPD*%
%AMOC8*
5,1,8,0,0,1.08239X$1,22.5*
%
%ADD10C,0.0000*%
%ADD11C,0.9213*%
%ADD12C,0.0040*%
%ADD13R,0.0079X0.0079*%
%ADD14R,0.0079X0.0079*%
%ADD15C,0.0060*%
%ADD16C,0.0010*%
%ADD17C,0.0050*%
D10*
X005785Y000375D02*
X017147Y000375D01*
X022832Y010218D01*
X017147Y020060D01*
X005785Y020060D01*
X000100Y010218D01*
X005785Y000375D01*
X005639Y007383D02*
X005641Y007433D01*
X005647Y007483D01*
X005657Y007532D01*
X005671Y007580D01*
X005688Y007627D01*
X005709Y007672D01*
X005734Y007716D01*
X005762Y007757D01*
X005794Y007796D01*
X005828Y007833D01*
X005865Y007867D01*
X005905Y007897D01*
X005947Y007924D01*
X005991Y007948D01*
X006037Y007969D01*
X006084Y007985D01*
X006132Y007998D01*
X006182Y008007D01*
X006231Y008012D01*
X006282Y008013D01*
X006332Y008010D01*
X006381Y008003D01*
X006430Y007992D01*
X006478Y007977D01*
X006524Y007959D01*
X006569Y007937D01*
X006612Y007911D01*
X006653Y007882D01*
X006692Y007850D01*
X006728Y007815D01*
X006760Y007777D01*
X006790Y007737D01*
X006817Y007694D01*
X006840Y007650D01*
X006859Y007604D01*
X006875Y007556D01*
X006887Y007507D01*
X006895Y007458D01*
X006899Y007408D01*
X006899Y007358D01*
X006895Y007308D01*
X006887Y007259D01*
X006875Y007210D01*
X006859Y007162D01*
X006840Y007116D01*
X006817Y007072D01*
X006790Y007029D01*
X006760Y006989D01*
X006728Y006951D01*
X006692Y006916D01*
X006653Y006884D01*
X006612Y006855D01*
X006569Y006829D01*
X006524Y006807D01*
X006478Y006789D01*
X006430Y006774D01*
X006381Y006763D01*
X006332Y006756D01*
X006282Y006753D01*
X006231Y006754D01*
X006182Y006759D01*
X006132Y006768D01*
X006084Y006781D01*
X006037Y006797D01*
X005991Y006818D01*
X005947Y006842D01*
X005905Y006869D01*
X005865Y006899D01*
X005828Y006933D01*
X005794Y006970D01*
X005762Y007009D01*
X005734Y007050D01*
X005709Y007094D01*
X005688Y007139D01*
X005671Y007186D01*
X005657Y007234D01*
X005647Y007283D01*
X005641Y007333D01*
X005639Y007383D01*
X005639Y013052D02*
X005641Y013102D01*
X005647Y013152D01*
X005657Y013201D01*
X005671Y013249D01*
X005688Y013296D01*
X005709Y013341D01*
X005734Y013385D01*
X005762Y013426D01*
X005794Y013465D01*
X005828Y013502D01*
X005865Y013536D01*
X005905Y013566D01*
X005947Y013593D01*
X005991Y013617D01*
X006037Y013638D01*
X006084Y013654D01*
X006132Y013667D01*
X006182Y013676D01*
X006231Y013681D01*
X006282Y013682D01*
X006332Y013679D01*
X006381Y013672D01*
X006430Y013661D01*
X006478Y013646D01*
X006524Y013628D01*
X006569Y013606D01*
X006612Y013580D01*
X006653Y013551D01*
X006692Y013519D01*
X006728Y013484D01*
X006760Y013446D01*
X006790Y013406D01*
X006817Y013363D01*
X006840Y013319D01*
X006859Y013273D01*
X006875Y013225D01*
X006887Y013176D01*
X006895Y013127D01*
X006899Y013077D01*
X006899Y013027D01*
X006895Y012977D01*
X006887Y012928D01*
X006875Y012879D01*
X006859Y012831D01*
X006840Y012785D01*
X006817Y012741D01*
X006790Y012698D01*
X006760Y012658D01*
X006728Y012620D01*
X006692Y012585D01*
X006653Y012553D01*
X006612Y012524D01*
X006569Y012498D01*
X006524Y012476D01*
X006478Y012458D01*
X006430Y012443D01*
X006381Y012432D01*
X006332Y012425D01*
X006282Y012422D01*
X006231Y012423D01*
X006182Y012428D01*
X006132Y012437D01*
X006084Y012450D01*
X006037Y012466D01*
X005991Y012487D01*
X005947Y012511D01*
X005905Y012538D01*
X005865Y012568D01*
X005828Y012602D01*
X005794Y012639D01*
X005762Y012678D01*
X005734Y012719D01*
X005709Y012763D01*
X005688Y012808D01*
X005671Y012855D01*
X005657Y012903D01*
X005647Y012952D01*
X005641Y013002D01*
X005639Y013052D01*
X016033Y013052D02*
X016035Y013102D01*
X016041Y013152D01*
X016051Y013201D01*
X016065Y013249D01*
X016082Y013296D01*
X016103Y013341D01*
X016128Y013385D01*
X016156Y013426D01*
X016188Y013465D01*
X016222Y013502D01*
X016259Y013536D01*
X016299Y013566D01*
X016341Y013593D01*
X016385Y013617D01*
X016431Y013638D01*
X016478Y013654D01*
X016526Y013667D01*
X016576Y013676D01*
X016625Y013681D01*
X016676Y013682D01*
X016726Y013679D01*
X016775Y013672D01*
X016824Y013661D01*
X016872Y013646D01*
X016918Y013628D01*
X016963Y013606D01*
X017006Y013580D01*
X017047Y013551D01*
X017086Y013519D01*
X017122Y013484D01*
X017154Y013446D01*
X017184Y013406D01*
X017211Y013363D01*
X017234Y013319D01*
X017253Y013273D01*
X017269Y013225D01*
X017281Y013176D01*
X017289Y013127D01*
X017293Y013077D01*
X017293Y013027D01*
X017289Y012977D01*
X017281Y012928D01*
X017269Y012879D01*
X017253Y012831D01*
X017234Y012785D01*
X017211Y012741D01*
X017184Y012698D01*
X017154Y012658D01*
X017122Y012620D01*
X017086Y012585D01*
X017047Y012553D01*
X017006Y012524D01*
X016963Y012498D01*
X016918Y012476D01*
X016872Y012458D01*
X016824Y012443D01*
X016775Y012432D01*
X016726Y012425D01*
X016676Y012422D01*
X016625Y012423D01*
X016576Y012428D01*
X016526Y012437D01*
X016478Y012450D01*
X016431Y012466D01*
X016385Y012487D01*
X016341Y012511D01*
X016299Y012538D01*
X016259Y012568D01*
X016222Y012602D01*
X016188Y012639D01*
X016156Y012678D01*
X016128Y012719D01*
X016103Y012763D01*
X016082Y012808D01*
X016065Y012855D01*
X016051Y012903D01*
X016041Y012952D01*
X016035Y013002D01*
X016033Y013052D01*
X016033Y007383D02*
X016035Y007433D01*
X016041Y007483D01*
X016051Y007532D01*
X016065Y007580D01*
X016082Y007627D01*
X016103Y007672D01*
X016128Y007716D01*
X016156Y007757D01*
X016188Y007796D01*
X016222Y007833D01*
X016259Y007867D01*
X016299Y007897D01*
X016341Y007924D01*
X016385Y007948D01*
X016431Y007969D01*
X016478Y007985D01*
X016526Y007998D01*
X016576Y008007D01*
X016625Y008012D01*
X016676Y008013D01*
X016726Y008010D01*
X016775Y008003D01*
X016824Y007992D01*
X016872Y007977D01*
X016918Y007959D01*
X016963Y007937D01*
X017006Y007911D01*
X017047Y007882D01*
X017086Y007850D01*
X017122Y007815D01*
X017154Y007777D01*
X017184Y007737D01*
X017211Y007694D01*
X017234Y007650D01*
X017253Y007604D01*
X017269Y007556D01*
X017281Y007507D01*
X017289Y007458D01*
X017293Y007408D01*
X017293Y007358D01*
X017289Y007308D01*
X017281Y007259D01*
X017269Y007210D01*
X017253Y007162D01*
X017234Y007116D01*
X017211Y007072D01*
X017184Y007029D01*
X017154Y006989D01*
X017122Y006951D01*
X017086Y006916D01*
X017047Y006884D01*
X017006Y006855D01*
X016963Y006829D01*
X016918Y006807D01*
X016872Y006789D01*
X016824Y006774D01*
X016775Y006763D01*
X016726Y006756D01*
X016676Y006753D01*
X016625Y006754D01*
X016576Y006759D01*
X016526Y006768D01*
X016478Y006781D01*
X016431Y006797D01*
X016385Y006818D01*
X016341Y006842D01*
X016299Y006869D01*
X016259Y006899D01*
X016222Y006933D01*
X016188Y006970D01*
X016156Y007009D01*
X016128Y007050D01*
X016103Y007094D01*
X016082Y007139D01*
X016065Y007186D01*
X016051Y007234D01*
X016041Y007283D01*
X016035Y007333D01*
X016033Y007383D01*
D11*
X011466Y010218D03*
D12*
X002694Y005070D02*
X002848Y004804D01*
X002771Y004937D02*
X003170Y005167D01*
X002960Y005223D01*
X002618Y005203D02*
X002464Y005469D01*
X002541Y005336D02*
X002940Y005566D01*
X002730Y005622D01*
X002720Y005793D02*
X002748Y005898D01*
X002633Y006097D01*
X002234Y005867D01*
X002349Y005668D01*
X002454Y005640D01*
X002720Y005793D01*
X002556Y006230D02*
X002403Y006496D01*
X002004Y006266D01*
X002157Y006000D01*
X002280Y006248D02*
X002203Y006381D01*
X001927Y006399D02*
X001774Y006665D01*
X002172Y006895D01*
X004415Y009235D02*
X004722Y009235D01*
X004875Y009235D02*
X005182Y009235D01*
X005336Y009235D02*
X005566Y009235D01*
X005643Y009311D01*
X005643Y009618D01*
X005566Y009695D01*
X005336Y009695D01*
X005336Y009235D01*
X005029Y009465D02*
X004875Y009465D01*
X004875Y009695D02*
X004875Y009235D01*
X004415Y009235D02*
X004415Y009695D01*
X004875Y009695D02*
X005182Y009695D01*
X005796Y009695D02*
X005796Y009465D01*
X005950Y009542D01*
X006026Y009542D01*
X006103Y009465D01*
X006103Y009311D01*
X006026Y009235D01*
X005873Y009235D01*
X005796Y009311D01*
X005796Y009695D02*
X006103Y009695D01*
X009147Y005354D02*
X009136Y005183D01*
X009193Y004973D01*
X009308Y005173D01*
X009412Y005201D01*
X009479Y005162D01*
X009507Y005057D01*
X009430Y004925D01*
X009325Y004896D01*
X009193Y004973D01*
X009249Y004764D02*
X008983Y004917D01*
X008878Y004889D01*
X008763Y004690D01*
X009162Y004459D01*
X009277Y004659D01*
X009249Y004764D01*
X009085Y004326D02*
X008931Y004061D01*
X008533Y004291D01*
X008686Y004557D01*
X008809Y004309D02*
X008732Y004176D01*
X008855Y003928D02*
X008701Y003662D01*
X008303Y003892D01*
X014590Y006012D02*
X014743Y005746D01*
X014820Y005613D02*
X014974Y005347D01*
X015050Y005214D02*
X015165Y005015D01*
X015270Y004987D01*
X015536Y005140D01*
X015564Y005245D01*
X015449Y005444D01*
X015050Y005214D01*
X015096Y005595D02*
X015019Y005728D01*
X014820Y005613D02*
X015219Y005843D01*
X015372Y005577D01*
X015546Y004969D02*
X015756Y004913D01*
X015357Y004682D01*
X015434Y004550D02*
X015280Y004815D01*
X014590Y006012D02*
X014989Y006242D01*
X018369Y005686D02*
X018768Y005456D01*
X018921Y005722D01*
X018998Y005854D02*
X019152Y006120D01*
X019228Y006253D02*
X019343Y006453D01*
X019315Y006557D01*
X019050Y006711D01*
X018945Y006683D01*
X018830Y006483D01*
X019228Y006253D01*
X018876Y006102D02*
X018799Y005970D01*
X018599Y006085D02*
X018998Y005854D01*
X018599Y006085D02*
X018753Y006350D01*
X019193Y006805D02*
X019137Y007015D01*
X019535Y006785D01*
X019459Y006652D02*
X019612Y006918D01*
X019689Y007051D02*
X019576Y007470D01*
X019510Y007508D01*
X019405Y007480D01*
X019328Y007347D01*
X019356Y007242D01*
X019689Y007051D02*
X019842Y007316D01*
X018325Y010774D02*
X018018Y010774D01*
X018325Y011081D01*
X018325Y011158D01*
X018248Y011234D01*
X018095Y011234D01*
X018018Y011158D01*
X017865Y011158D02*
X017788Y011234D01*
X017558Y011234D01*
X017558Y010774D01*
X017788Y010774D01*
X017865Y010851D01*
X017865Y011158D01*
X017404Y011234D02*
X017097Y011234D01*
X017097Y010774D01*
X017404Y010774D01*
X017251Y011004D02*
X017097Y011004D01*
X016944Y010774D02*
X016637Y010774D01*
X016637Y011234D01*
X013710Y014774D02*
X013864Y015040D01*
X013940Y015173D02*
X014094Y015438D01*
X014171Y015571D02*
X014286Y015771D01*
X014258Y015875D01*
X013992Y016029D01*
X013887Y016001D01*
X013772Y015801D01*
X014171Y015571D01*
X013818Y015421D02*
X013741Y015288D01*
X013542Y015403D02*
X013940Y015173D01*
X013542Y015403D02*
X013695Y015669D01*
X014068Y016162D02*
X014040Y016267D01*
X014117Y016400D01*
X014222Y016428D01*
X014288Y016389D01*
X014317Y016284D01*
X014421Y016312D01*
X014488Y016274D01*
X014516Y016169D01*
X014439Y016036D01*
X014334Y016008D01*
X014278Y016218D02*
X014317Y016284D01*
X013710Y014774D02*
X013311Y015004D01*
X011756Y018450D02*
X011602Y018450D01*
X011526Y018527D01*
X011372Y018450D02*
X011065Y018450D01*
X011219Y018450D02*
X011219Y018911D01*
X011065Y018757D01*
X010912Y018834D02*
X010835Y018911D01*
X010605Y018911D01*
X010605Y018450D01*
X010835Y018450D01*
X010912Y018527D01*
X010912Y018834D01*
X010451Y018911D02*
X010145Y018911D01*
X010145Y018450D01*
X010451Y018450D01*
X010298Y018681D02*
X010145Y018681D01*
X009991Y018450D02*
X009684Y018450D01*
X009684Y018911D01*
X011526Y018834D02*
X011602Y018911D01*
X011756Y018911D01*
X011833Y018834D01*
X011833Y018757D01*
X011756Y018681D01*
X011833Y018604D01*
X011833Y018527D01*
X011756Y018450D01*
X011756Y018681D02*
X011679Y018681D01*
X007730Y015612D02*
X007883Y015347D01*
X007960Y015214D02*
X008075Y015014D01*
X008047Y014909D01*
X007781Y014756D01*
X007677Y014784D01*
X007561Y014983D01*
X007960Y015214D01*
X007607Y015364D02*
X007531Y015497D01*
X007730Y015612D02*
X007331Y015382D01*
X007485Y015116D01*
X007254Y015515D02*
X007101Y015781D01*
X007500Y016011D01*
X007991Y014700D02*
X008144Y014434D01*
X007907Y014385D02*
X008305Y014616D01*
X007991Y014700D01*
D13*
G36*
X008605Y015213D02*
X008644Y015146D01*
X008577Y015107D01*
X008538Y015174D01*
X008605Y015213D01*
G37*
G36*
X014473Y014978D02*
X014434Y014911D01*
X014367Y014950D01*
X014406Y015017D01*
X014473Y014978D01*
G37*
G36*
X019531Y005660D02*
X019492Y005593D01*
X019425Y005632D01*
X019464Y005699D01*
X019531Y005660D01*
G37*
G36*
X014385Y005249D02*
X014346Y005316D01*
X014413Y005355D01*
X014452Y005288D01*
X014385Y005249D01*
G37*
G36*
X008441Y005248D02*
X008480Y005315D01*
X008547Y005276D01*
X008508Y005209D01*
X008441Y005248D01*
G37*
G36*
X003508Y005699D02*
X003547Y005632D01*
X003480Y005593D01*
X003441Y005660D01*
X003508Y005699D01*
G37*
D14*
X005697Y010215D03*
X011427Y019430D03*
X017156Y010254D03*
D15*
X018589Y010475D02*
X018825Y010475D01*
X018825Y010002D02*
X018589Y010002D01*
X020179Y007367D02*
X020061Y007163D01*
X020470Y006926D02*
X020588Y007131D01*
X014957Y003782D02*
X014957Y003546D01*
X014485Y003546D02*
X014485Y003782D01*
X012966Y002700D02*
X012966Y001200D01*
X012716Y000950D01*
X012216Y000950D01*
X011966Y001200D01*
X011716Y000950D01*
X011216Y000950D01*
X010966Y001200D01*
X010716Y000950D01*
X010216Y000950D01*
X009966Y001200D01*
X009966Y002700D01*
X010216Y002950D01*
X010716Y002950D01*
X010966Y002700D01*
X011216Y002950D01*
X011716Y002950D01*
X011966Y002700D01*
X012216Y002950D01*
X012716Y002950D01*
X012966Y002700D01*
X009786Y004331D02*
X009550Y004331D01*
X009550Y004803D02*
X009786Y004803D01*
X004943Y008743D02*
X004943Y008979D01*
X004471Y008979D02*
X004471Y008743D01*
X002872Y007249D02*
X002990Y007045D01*
X002580Y006808D02*
X002462Y007013D01*
X003281Y012613D02*
X002848Y012863D01*
X002757Y013204D01*
X003007Y013637D01*
X003348Y013729D01*
X003257Y014070D01*
X003507Y014503D01*
X003848Y014595D01*
X003757Y014936D01*
X004007Y015369D01*
X004348Y015461D01*
X004257Y015802D01*
X004507Y016235D01*
X004848Y016327D01*
X005281Y016077D01*
X005373Y015735D01*
X005123Y015302D01*
X004781Y015211D01*
X004873Y014869D01*
X004623Y014436D01*
X004281Y014345D01*
X004373Y014003D01*
X004123Y013570D01*
X003781Y013479D01*
X003873Y013137D01*
X003623Y012704D01*
X003281Y012613D01*
X007623Y016357D02*
X007505Y016561D01*
X007914Y016798D02*
X008032Y016593D01*
X009655Y019194D02*
X009891Y019194D01*
X009891Y019667D02*
X009655Y019667D01*
X015061Y016540D02*
X014943Y016336D01*
X015352Y016100D02*
X015470Y016304D01*
D16*
X015535Y016229D02*
X015569Y016238D01*
X015612Y016213D01*
X015621Y016179D01*
X015584Y016114D01*
X015627Y016089D02*
X015497Y016164D01*
X015535Y016229D01*
X015592Y016279D02*
X015583Y016313D01*
X015608Y016357D01*
X015643Y016366D01*
X015664Y016353D01*
X015673Y016319D01*
X015708Y016328D01*
X015729Y016316D01*
X015738Y016282D01*
X015713Y016238D01*
X015679Y016229D01*
X015677Y016176D02*
X015609Y016157D01*
X015661Y016297D02*
X015673Y016319D01*
X009873Y019785D02*
X009848Y019760D01*
X009798Y019760D01*
X009773Y019785D01*
X009726Y019760D02*
X009626Y019760D01*
X009578Y019760D02*
X009528Y019810D01*
X009553Y019810D02*
X009478Y019810D01*
X009478Y019760D02*
X009478Y019910D01*
X009553Y019910D01*
X009578Y019885D01*
X009578Y019835D01*
X009553Y019810D01*
X009626Y019860D02*
X009676Y019910D01*
X009676Y019760D01*
X009773Y019885D02*
X009798Y019910D01*
X009848Y019910D01*
X009873Y019885D01*
X009873Y019860D01*
X009848Y019835D01*
X009873Y019810D01*
X009873Y019785D01*
X009848Y019835D02*
X009823Y019835D01*
X008037Y017073D02*
X007907Y016998D01*
X007950Y017023D02*
X007988Y016958D01*
X008022Y016949D01*
X008065Y016974D01*
X008074Y017008D01*
X008037Y017073D01*
X007975Y016979D02*
X007957Y016911D01*
X008045Y016908D02*
X008095Y016821D01*
X008018Y016805D02*
X008148Y016880D01*
X008045Y016908D01*
X004352Y008813D02*
X004377Y008788D01*
X004377Y008738D01*
X004352Y008713D01*
X004302Y008713D02*
X004277Y008763D01*
X004277Y008788D01*
X004302Y008813D01*
X004352Y008813D01*
X004302Y008713D02*
X004227Y008713D01*
X004227Y008813D01*
X004252Y008666D02*
X004302Y008666D01*
X004327Y008641D01*
X004327Y008566D01*
X004327Y008616D02*
X004377Y008666D01*
X004377Y008566D02*
X004227Y008566D01*
X004227Y008641D01*
X004252Y008666D01*
X002994Y007524D02*
X003032Y007459D01*
X003023Y007425D01*
X002979Y007400D01*
X002945Y007409D01*
X002908Y007474D01*
X002933Y007431D02*
X002914Y007363D01*
X002938Y007322D02*
X002988Y007235D01*
X003012Y007194D02*
X003062Y007107D01*
X003037Y007151D02*
X003167Y007226D01*
X003098Y007244D01*
X003093Y007353D02*
X002963Y007278D01*
X003025Y007372D02*
X003093Y007353D01*
X002994Y007524D02*
X002864Y007449D01*
X009678Y004237D02*
X009678Y004087D01*
X009678Y004137D02*
X009753Y004137D01*
X009778Y004162D01*
X009778Y004212D01*
X009753Y004237D01*
X009678Y004237D01*
X009728Y004137D02*
X009778Y004087D01*
X009825Y004112D02*
X009850Y004087D01*
X009900Y004087D01*
X009925Y004112D01*
X009925Y004137D01*
X009900Y004162D01*
X009825Y004162D01*
X009825Y004112D01*
X009825Y004162D02*
X009875Y004212D01*
X009925Y004237D01*
X014241Y003566D02*
X014391Y003566D01*
X014391Y003516D02*
X014391Y003616D01*
X014291Y003516D02*
X014241Y003566D01*
X014266Y003469D02*
X014316Y003469D01*
X014341Y003444D01*
X014341Y003369D01*
X014341Y003419D02*
X014391Y003469D01*
X014391Y003369D02*
X014241Y003369D01*
X014241Y003444D01*
X014266Y003469D01*
X020542Y006863D02*
X020579Y006928D01*
X020613Y006937D01*
X020657Y006912D01*
X020666Y006878D01*
X020628Y006813D01*
X020672Y006788D02*
X020542Y006863D01*
X020653Y006857D02*
X020722Y006875D01*
X020745Y006916D02*
X020795Y007002D01*
X020819Y007043D02*
X020782Y007180D01*
X020761Y007193D01*
X020726Y007183D01*
X020701Y007140D01*
X020711Y007106D01*
X020640Y007034D02*
X020770Y006959D01*
X020819Y007043D02*
X020869Y007130D01*
X020640Y007034D02*
X020659Y006966D01*
X018965Y009759D02*
X018865Y009759D01*
X018965Y009859D01*
X018965Y009884D01*
X018940Y009909D01*
X018890Y009909D01*
X018865Y009884D01*
X018818Y009884D02*
X018818Y009834D01*
X018793Y009809D01*
X018718Y009809D01*
X018768Y009809D02*
X018818Y009759D01*
X018718Y009759D02*
X018718Y009909D01*
X018793Y009909D01*
X018818Y009884D01*
D17*
X011212Y003500D02*
X011212Y003425D01*
X010912Y003125D01*
X011212Y003125D01*
X011212Y003500D02*
X011137Y003575D01*
X010987Y003575D01*
X010912Y003500D01*
X010752Y003575D02*
X010752Y003275D01*
X010602Y003125D01*
X010452Y003275D01*
X010452Y003575D01*
X010291Y003500D02*
X010216Y003575D01*
X010066Y003575D01*
X009991Y003500D01*
X009991Y003425D01*
X010066Y003350D01*
X010216Y003350D01*
X010291Y003275D01*
X010291Y003200D01*
X010216Y003125D01*
X010066Y003125D01*
X009991Y003200D01*
X010391Y000775D02*
X010241Y000625D01*
X010391Y000775D02*
X010391Y000325D01*
X010241Y000325D02*
X010541Y000325D01*
X013091Y002300D02*
X013166Y002225D01*
X013316Y002225D01*
X013391Y002300D01*
X013391Y002375D01*
X013316Y002450D01*
X013091Y002450D01*
X013091Y002300D01*
X013091Y002450D02*
X013241Y002600D01*
X013391Y002675D01*
X002797Y012274D02*
X002947Y012534D01*
X003104Y012356D02*
X002714Y012582D01*
X002797Y012274D01*
X005296Y014502D02*
X005398Y014530D01*
X005473Y014660D01*
X005446Y014762D01*
X005381Y014800D01*
X005278Y014772D01*
X005203Y014642D01*
X005101Y014615D01*
X005036Y014652D01*
X005008Y014755D01*
X005083Y014885D01*
X005186Y014912D01*
X005201Y015089D02*
X005461Y014939D01*
X005666Y014993D01*
X005611Y015199D01*
X005351Y015349D01*
X005496Y015450D02*
X005469Y015552D01*
X005544Y015682D01*
X005646Y015710D01*
X005711Y015672D01*
X005739Y015570D01*
X005841Y015597D01*
X005906Y015560D01*
X005934Y015457D01*
X005859Y015327D01*
X005756Y015300D01*
X005701Y015505D02*
X005739Y015570D01*
X005267Y016102D02*
X005417Y016362D01*
X005342Y016232D02*
X004952Y016457D01*
X005007Y016252D01*
M02*
