<?xml version="1.0" standalone="no"?>
<!DOCTYPE svg PUBLIC "-//W3C//DTD SVG 1.1//EN" "http://www.w3.org/Graphics/SVG/1.1/DTD/svg11.dtd">
<svg width="50.2mm" height="90.2mm"
 viewBox="0 0 50.2 90.2"
 xmlns="http://www.w3.org/2000/svg" version="1.1"
 xmlns:xlink="http://www.w3.org/1999/xlink">
<desc>Output from Flights of Ideas SVG Sketchup Plugin</desc>

<g id="text_annotations" font-size=".1" stroke="rgb(0,0,0)" stroke-width=".1">
</g>
  <g id="face0" fill="none" stroke="rgb(0,0,0)" stroke-width=".1" stroke-miterlimit="4" stroke-dasharray="none" stroke-linejoin="round" stroke-linecap="round">
    <line stroke="rgb(0,0,0)" x1="42.0488887394336" y1="82.9882285676539" x2="42.1" y2="82.6000000000001"/>
    <line stroke="rgb(0,0,0)" x1="42.1" y1="82.6000000000001" x2="42.0488887394336" y2="82.2117714323462"/>
    <line stroke="rgb(0,0,0)" x1="42.0488887394336" y1="82.2117714323462" x2="41.8990381056766" y2="81.8500000000001"/>
    <line stroke="rgb(0,0,0)" x1="41.8990381056766" y1="81.8500000000001" x2="41.6606601717798" y2="81.5393398282202"/>
    <line stroke="rgb(0,0,0)" x1="41.6606601717798" y1="81.5393398282202" x2="41.35" y2="81.3009618943234"/>
    <line stroke="rgb(0,0,0)" x1="41.35" y1="81.3009618943234" x2="40.9882285676538" y2="81.1511112605664"/>
    <line stroke="rgb(0,0,0)" x1="40.9882285676538" y1="81.1511112605664" x2="40.5999999999999" y2="81.1"/>
    <line stroke="rgb(0,0,0)" x1="40.5999999999999" y1="81.1" x2="40.2117714323462" y2="81.1511112605664"/>
    <line stroke="rgb(0,0,0)" x1="40.2117714323462" y1="81.1511112605664" x2="39.8499999999999" y2="81.3009618943234"/>
    <line stroke="rgb(0,0,0)" x1="39.8499999999999" y1="81.3009618943234" x2="39.5393398282201" y2="81.5393398282202"/>
    <line stroke="rgb(0,0,0)" x1="39.5393398282201" y1="81.5393398282202" x2="39.3009618943233" y2="81.8500000000001"/>
    <line stroke="rgb(0,0,0)" x1="39.3009618943233" y1="81.8500000000001" x2="39.1511112605664" y2="82.2117714323462"/>
    <line stroke="rgb(0,0,0)" x1="39.1511112605664" y1="82.2117714323462" x2="39.0999999999999" y2="82.6000000000001"/>
    <line stroke="rgb(0,0,0)" x1="39.0999999999999" y1="82.6000000000001" x2="39.1511112605664" y2="82.9882285676539"/>
    <line stroke="rgb(0,0,0)" x1="39.1511112605664" y1="82.9882285676539" x2="39.3009618943233" y2="83.3500000000001"/>
    <line stroke="rgb(0,0,0)" x1="39.3009618943233" y1="83.3500000000001" x2="39.5393398282201" y2="83.6606601717799"/>
    <line stroke="rgb(0,0,0)" x1="39.5393398282201" y1="83.6606601717799" x2="39.8499999999999" y2="83.8990381056767"/>
    <line stroke="rgb(0,0,0)" x1="39.8499999999999" y1="83.8990381056767" x2="40.2117714323462" y2="84.0488887394336"/>
    <line stroke="rgb(0,0,0)" x1="40.2117714323462" y1="84.0488887394336" x2="40.5999999999999" y2="84.1000000000001"/>
    <line stroke="rgb(0,0,0)" x1="40.5999999999999" y1="84.1000000000001" x2="40.9882285676538" y2="84.0488887394336"/>
    <line stroke="rgb(0,0,0)" x1="40.9882285676538" y1="84.0488887394336" x2="41.35" y2="83.8990381056767"/>
    <line stroke="rgb(0,0,0)" x1="41.35" y1="83.8990381056767" x2="41.6606601717798" y2="83.6606601717799"/>
    <line stroke="rgb(0,0,0)" x1="41.6606601717798" y1="83.6606601717799" x2="41.8990381056766" y2="83.3500000000001"/>
    <line stroke="rgb(0,0,0)" x1="41.8990381056766" y1="83.3500000000001" x2="42.0488887394336" y2="82.9882285676539"/>
  </g>
  <g id="face1" fill="none" stroke="rgb(0,0,0)" stroke-width=".1" stroke-miterlimit="4" stroke-dasharray="none" stroke-linejoin="round" stroke-linecap="round">
    <line stroke="rgb(0,0,0)" x1="42.0488887394336" y1="22.9882285676538" x2="42.1" y2="22.6"/>
    <line stroke="rgb(0,0,0)" x1="42.1" y1="22.6" x2="42.0488887394336" y2="22.2117714323462"/>
    <line stroke="rgb(0,0,0)" x1="42.0488887394336" y1="22.2117714323462" x2="41.8990381056766" y2="21.85"/>
    <line stroke="rgb(0,0,0)" x1="41.8990381056766" y1="21.85" x2="41.6606601717798" y2="21.5393398282202"/>
    <line stroke="rgb(0,0,0)" x1="41.6606601717798" y1="21.5393398282202" x2="41.35" y2="21.3009618943234"/>
    <line stroke="rgb(0,0,0)" x1="41.35" y1="21.3009618943234" x2="40.9882285676538" y2="21.1511112605664"/>
    <line stroke="rgb(0,0,0)" x1="40.9882285676538" y1="21.1511112605664" x2="40.5999999999999" y2="21.1"/>
    <line stroke="rgb(0,0,0)" x1="40.5999999999999" y1="21.1" x2="40.2117714323462" y2="21.1511112605664"/>
    <line stroke="rgb(0,0,0)" x1="40.2117714323462" y1="21.1511112605664" x2="39.8499999999999" y2="21.3009618943234"/>
    <line stroke="rgb(0,0,0)" x1="39.8499999999999" y1="21.3009618943234" x2="39.5393398282201" y2="21.5393398282202"/>
    <line stroke="rgb(0,0,0)" x1="39.5393398282201" y1="21.5393398282202" x2="39.3009618943233" y2="21.85"/>
    <line stroke="rgb(0,0,0)" x1="39.3009618943233" y1="21.85" x2="39.1511112605664" y2="22.2117714323462"/>
    <line stroke="rgb(0,0,0)" x1="39.1511112605664" y1="22.2117714323462" x2="39.0999999999999" y2="22.6"/>
    <line stroke="rgb(0,0,0)" x1="39.0999999999999" y1="22.6" x2="39.1511112605664" y2="22.9882285676538"/>
    <line stroke="rgb(0,0,0)" x1="39.1511112605664" y1="22.9882285676538" x2="39.3009618943233" y2="23.35"/>
    <line stroke="rgb(0,0,0)" x1="39.3009618943233" y1="23.35" x2="39.5393398282201" y2="23.6606601717798"/>
    <line stroke="rgb(0,0,0)" x1="39.5393398282201" y1="23.6606601717798" x2="39.8499999999999" y2="23.8990381056767"/>
    <line stroke="rgb(0,0,0)" x1="39.8499999999999" y1="23.8990381056767" x2="40.2117714323462" y2="24.0488887394336"/>
    <line stroke="rgb(0,0,0)" x1="40.2117714323462" y1="24.0488887394336" x2="40.5999999999999" y2="24.1000000000001"/>
    <line stroke="rgb(0,0,0)" x1="40.5999999999999" y1="24.1000000000001" x2="40.9882285676538" y2="24.0488887394336"/>
    <line stroke="rgb(0,0,0)" x1="40.9882285676538" y1="24.0488887394336" x2="41.35" y2="23.8990381056767"/>
    <line stroke="rgb(0,0,0)" x1="41.35" y1="23.8990381056767" x2="41.6606601717798" y2="23.6606601717798"/>
    <line stroke="rgb(0,0,0)" x1="41.6606601717798" y1="23.6606601717798" x2="41.8990381056766" y2="23.35"/>
    <line stroke="rgb(0,0,0)" x1="41.8990381056766" y1="23.35" x2="42.0488887394336" y2="22.9882285676538"/>
  </g>
  <g id="face2" fill="none" stroke="rgb(0,0,0)" stroke-width=".1" stroke-miterlimit="4" stroke-dasharray="none" stroke-linejoin="round" stroke-linecap="round">
    <line stroke="rgb(0,0,0)" x1="9.98822856765375" y1="6.15111126056641" x2="9.6" y2="6.1"/>
    <line stroke="rgb(0,0,0)" x1="9.6" y1="6.1" x2="9.21177143234619" y2="6.15111126056641"/>
    <line stroke="rgb(0,0,0)" x1="9.21177143234619" y1="6.15111126056641" x2="8.84999999999994" y2="6.30096189432331"/>
    <line stroke="rgb(0,0,0)" x1="8.84999999999994" y1="6.30096189432331" x2="8.53933982822011" y2="6.53933982822023"/>
    <line stroke="rgb(0,0,0)" x1="8.53933982822011" y1="6.53933982822023" x2="8.30096189432331" y2="6.85"/>
    <line stroke="rgb(0,0,0)" x1="8.30096189432331" y1="6.85" x2="8.15111126056636" y2="7.21177143234619"/>
    <line stroke="rgb(0,0,0)" x1="8.15111126056636" y1="7.21177143234619" x2="8.09999999999994" y2="7.6"/>
    <line stroke="rgb(0,0,0)" x1="8.09999999999994" y1="7.6" x2="8.15111126056636" y2="7.98822856765381"/>
    <line stroke="rgb(0,0,0)" x1="8.15111126056636" y1="7.98822856765381" x2="8.30096189432331" y2="8.35"/>
    <line stroke="rgb(0,0,0)" x1="8.30096189432331" y1="8.35" x2="8.53933982822011" y2="8.66066017177983"/>
    <line stroke="rgb(0,0,0)" x1="8.53933982822011" y1="8.66066017177983" x2="8.84999999999994" y2="8.89903810567669"/>
    <line stroke="rgb(0,0,0)" x1="8.84999999999994" y1="8.89903810567669" x2="9.21177143234619" y2="9.04888873943358"/>
    <line stroke="rgb(0,0,0)" x1="9.21177143234619" y1="9.04888873943358" x2="9.6" y2="9.1"/>
    <line stroke="rgb(0,0,0)" x1="9.6" y1="9.1" x2="9.98822856765375" y2="9.04888873943358"/>
    <line stroke="rgb(0,0,0)" x1="9.98822856765375" y1="9.04888873943358" x2="10.35" y2="8.89903810567669"/>
    <line stroke="rgb(0,0,0)" x1="10.35" y1="8.89903810567669" x2="10.6606601717798" y2="8.66066017177983"/>
    <line stroke="rgb(0,0,0)" x1="10.6606601717798" y1="8.66066017177983" x2="10.8990381056766" y2="8.35"/>
    <line stroke="rgb(0,0,0)" x1="10.8990381056766" y1="8.35" x2="11.0488887394336" y2="7.98822856765381"/>
    <line stroke="rgb(0,0,0)" x1="11.0488887394336" y1="7.98822856765381" x2="11.1" y2="7.6"/>
    <line stroke="rgb(0,0,0)" x1="11.1" y1="7.6" x2="11.0488887394336" y2="7.21177143234619"/>
    <line stroke="rgb(0,0,0)" x1="11.0488887394336" y1="7.21177143234619" x2="10.8990381056766" y2="6.85"/>
    <line stroke="rgb(0,0,0)" x1="10.8990381056766" y1="6.85" x2="10.6606601717798" y2="6.53933982822023"/>
    <line stroke="rgb(0,0,0)" x1="10.6606601717798" y1="6.53933982822023" x2="10.35" y2="6.30096189432331"/>
    <line stroke="rgb(0,0,0)" x1="10.35" y1="6.30096189432331" x2="9.98822856765375" y2="6.15111126056641"/>
  </g>
  <g id="face3" fill="none" stroke="rgb(0,0,0)" stroke-width=".1" stroke-miterlimit="4" stroke-dasharray="none" stroke-linejoin="round" stroke-linecap="round">
    <line stroke="rgb(0,0,0)" x1="40.9882285676538" y1="6.15111126056641" x2="40.5999999999999" y2="6.1"/>
    <line stroke="rgb(0,0,0)" x1="40.5999999999999" y1="6.1" x2="40.2117714323462" y2="6.15111126056641"/>
    <line stroke="rgb(0,0,0)" x1="40.2117714323462" y1="6.15111126056641" x2="39.8499999999999" y2="6.30096189432331"/>
    <line stroke="rgb(0,0,0)" x1="39.8499999999999" y1="6.30096189432331" x2="39.5393398282201" y2="6.53933982822023"/>
    <line stroke="rgb(0,0,0)" x1="39.5393398282201" y1="6.53933982822023" x2="39.3009618943233" y2="6.85"/>
    <line stroke="rgb(0,0,0)" x1="39.3009618943233" y1="6.85" x2="39.1511112605664" y2="7.21177143234619"/>
    <line stroke="rgb(0,0,0)" x1="39.1511112605664" y1="7.21177143234619" x2="39.0999999999999" y2="7.6"/>
    <line stroke="rgb(0,0,0)" x1="39.0999999999999" y1="7.6" x2="39.1511112605664" y2="7.98822856765381"/>
    <line stroke="rgb(0,0,0)" x1="39.1511112605664" y1="7.98822856765381" x2="39.3009618943233" y2="8.35"/>
    <line stroke="rgb(0,0,0)" x1="39.3009618943233" y1="8.35" x2="39.5393398282201" y2="8.66066017177983"/>
    <line stroke="rgb(0,0,0)" x1="39.5393398282201" y1="8.66066017177983" x2="39.8499999999999" y2="8.89903810567669"/>
    <line stroke="rgb(0,0,0)" x1="39.8499999999999" y1="8.89903810567669" x2="40.2117714323462" y2="9.04888873943358"/>
    <line stroke="rgb(0,0,0)" x1="40.2117714323462" y1="9.04888873943358" x2="40.5999999999999" y2="9.1"/>
    <line stroke="rgb(0,0,0)" x1="40.5999999999999" y1="9.1" x2="40.9882285676538" y2="9.04888873943358"/>
    <line stroke="rgb(0,0,0)" x1="40.9882285676538" y1="9.04888873943358" x2="41.35" y2="8.89903810567669"/>
    <line stroke="rgb(0,0,0)" x1="41.35" y1="8.89903810567669" x2="41.6606601717798" y2="8.66066017177983"/>
    <line stroke="rgb(0,0,0)" x1="41.6606601717798" y1="8.66066017177983" x2="41.8990381056766" y2="8.35"/>
    <line stroke="rgb(0,0,0)" x1="41.8990381056766" y1="8.35" x2="42.0488887394336" y2="7.98822856765381"/>
    <line stroke="rgb(0,0,0)" x1="42.0488887394336" y1="7.98822856765381" x2="42.1" y2="7.6"/>
    <line stroke="rgb(0,0,0)" x1="42.1" y1="7.6" x2="42.0488887394336" y2="7.21177143234619"/>
    <line stroke="rgb(0,0,0)" x1="42.0488887394336" y1="7.21177143234619" x2="41.8990381056766" y2="6.85"/>
    <line stroke="rgb(0,0,0)" x1="41.8990381056766" y1="6.85" x2="41.6606601717798" y2="6.53933982822023"/>
    <line stroke="rgb(0,0,0)" x1="41.6606601717798" y1="6.53933982822023" x2="41.35" y2="6.30096189432331"/>
    <line stroke="rgb(0,0,0)" x1="41.35" y1="6.30096189432331" x2="40.9882285676538" y2="6.15111126056641"/>
  </g>
  <g id="face4" fill="none" stroke="rgb(0,0,0)" stroke-width=".1" stroke-miterlimit="4" stroke-dasharray="none" stroke-linejoin="round" stroke-linecap="round">
    <line x1="50.1" y1="86.6017951548694" x2="50.1" y2="3.5982048451306"/>
    <line x1="50.1" y1="3.5982048451306" x2="50.0700723726071" y2="3.14159748708992"/>
    <line x1="50.0700723726071" y1="3.14159748708992" x2="49.9808015604305" y2="2.69280280754086"/>
    <line x1="49.9808015604305" y1="2.69280280754086" x2="49.8337150118173" y2="2.2594998078798"/>
    <line x1="49.8337150118173" y1="2.2594998078798" x2="49.6313294183943" y2="1.84910242256527"/>
    <line x1="49.6313294183943" y1="1.84910242256527" x2="49.3771076537767" y2="1.46863266464366"/>
    <line x1="49.3771076537767" y1="1.46863266464366" x2="49.0753995228409" y2="1.12460047715908"/>
    <line x1="49.0753995228409" y1="1.12460047715908" x2="48.7313673353563" y2="0.822892346223261"/>
    <line x1="48.7313673353563" y1="0.822892346223261" x2="48.3508975774347" y2="0.568670581605693"/>
    <line x1="48.3508975774347" y1="0.568670581605693" x2="47.9405001921201" y2="0.366284988182633"/>
    <line x1="47.9405001921201" y1="0.366284988182633" x2="47.5071971924591" y2="0.219198439569345"/>
    <line x1="47.5071971924591" y1="0.219198439569345" x2="47.05840251291" y2="0.129927627392908"/>
    <line x1="47.05840251291" y1="0.129927627392908" x2="46.6017951548694" y2="0.1"/>
    <line x1="46.6017951548694" y1="0.1" x2="0.1" y2="0.1"/>
    <line x1="0.1" y1="0.1" x2="0.1" y2="75.1"/>
    <line x1="0.1" y1="75.1" x2="35.0999999999999" y2="90.1"/>
    <line x1="35.0999999999999" y1="90.1" x2="46.6017951548694" y2="90.1"/>
    <line x1="46.6017951548694" y1="90.1" x2="47.05840251291" y2="90.0700723726071"/>
    <line x1="47.05840251291" y1="90.0700723726071" x2="47.5071971924591" y2="89.9808015604306"/>
    <line x1="47.5071971924591" y1="89.9808015604306" x2="47.9405001921201" y2="89.8337150118174"/>
    <line x1="47.9405001921201" y1="89.8337150118174" x2="48.3508975774347" y2="89.6313294183943"/>
    <line x1="48.3508975774347" y1="89.6313294183943" x2="48.7313673353563" y2="89.3771076537768"/>
    <line x1="48.7313673353563" y1="89.3771076537768" x2="49.0753995228409" y2="89.0753995228409"/>
    <line x1="49.0753995228409" y1="89.0753995228409" x2="49.3771076537767" y2="88.7313673353563"/>
    <line x1="49.3771076537767" y1="88.7313673353563" x2="49.6313294183943" y2="88.3508975774347"/>
    <line x1="49.6313294183943" y1="88.3508975774347" x2="49.8337150118173" y2="87.9405001921201"/>
    <line x1="49.8337150118173" y1="87.9405001921201" x2="49.9808015604305" y2="87.5071971924591"/>
    <line x1="49.9808015604305" y1="87.5071971924591" x2="50.0700723726071" y2="87.0584025129101"/>
    <line x1="50.0700723726071" y1="87.0584025129101" x2="50.1" y2="86.6017951548694"/>
  </g>
</svg>
