<?xml version="1.0" standalone="no"?>
<!DOCTYPE svg PUBLIC "-//W3C//DTD SVG 1.1//EN" "http://www.w3.org/Graphics/SVG/1.1/DTD/svg11.dtd">
<svg width="50.2mm" height="50.2mm"
 viewBox="0 0 50.2 50.2"
 xmlns="http://www.w3.org/2000/svg" version="1.1"
 xmlns:xlink="http://www.w3.org/1999/xlink">
<desc>Output from Flights of Ideas SVG Sketchup Plugin</desc>

<g id="text_annotations" font-size=".1" stroke="rgb(0,0,0)" stroke-width=".1">
</g>
  <g id="face0" fill="none" stroke="rgb(0,0,0)" stroke-width=".1" stroke-miterlimit="4" stroke-dasharray="none" stroke-linejoin="round" stroke-linecap="round">
    <line stroke="rgb(0,0,0)" x1="20.8615864852159" y1="29.3468636518843" x2="19.9693972754827" y2="28.1865344388944"/>
    <line stroke="rgb(0,0,0)" x1="19.9693972754827" y1="28.1865344388944" x2="12.2041003055059" y2="32.7231305085741"/>
    <line stroke="rgb(0,0,0)" x1="12.2041003055059" y1="32.7231305085741" x2="14.4933982822018" y2="35.7066017177982"/>
    <line stroke="rgb(0,0,0)" x1="14.4933982822018" y1="35.7066017177982" x2="17.6" y2="38.0903810567666"/>
    <line stroke="rgb(0,0,0)" x1="17.6" y1="38.0903810567666" x2="21.2177143234622" y2="39.588887394336"/>
    <line stroke="rgb(0,0,0)" x1="21.2177143234622" y1="39.588887394336" x2="25.1" y2="40.1"/>
    <line stroke="rgb(0,0,0)" x1="25.1" y1="40.1" x2="28.9822856765378" y2="39.588887394336"/>
    <line stroke="rgb(0,0,0)" x1="28.9822856765378" y1="39.588887394336" x2="32.6" y2="38.0903810567666"/>
    <line stroke="rgb(0,0,0)" x1="32.6" y1="38.0903810567666" x2="35.7066017177982" y2="35.7066017177982"/>
    <line stroke="rgb(0,0,0)" x1="35.7066017177982" y1="35.7066017177982" x2="38.0903810567666" y2="32.6"/>
    <line stroke="rgb(0,0,0)" x1="38.0903810567666" y1="32.6" x2="39.588887394336" y2="28.9822856765377"/>
    <line stroke="rgb(0,0,0)" x1="39.588887394336" y1="28.9822856765377" x2="40.1" y2="25.1"/>
    <line stroke="rgb(0,0,0)" x1="40.1" y1="25.1" x2="39.588887394336" y2="21.2177143234622"/>
    <line stroke="rgb(0,0,0)" x1="39.588887394336" y1="21.2177143234622" x2="38.0903810567666" y2="17.6"/>
    <line stroke="rgb(0,0,0)" x1="38.0903810567666" y1="17.6" x2="30.3133579870882" y2="22.143446622598"/>
    <line stroke="rgb(0,0,0)" x1="30.3133579870882" y1="22.143446622598" x2="30.8940056014885" y2="23.5413149484514"/>
    <line stroke="rgb(0,0,0)" x1="30.8940056014885" y1="23.5413149484514" x2="31.0999970247987" y2="25.0940248507544"/>
    <line stroke="rgb(0,0,0)" x1="31.0999970247987" y1="25.0940248507544" x2="30.8970985663326" y2="26.6471419496041"/>
    <line stroke="rgb(0,0,0)" x1="30.8970985663326" y1="26.6471419496041" x2="30.2991374207295" y2="28.0948238813613"/>
    <line stroke="rgb(0,0,0)" x1="30.2991374207295" y1="28.0948238813613" x2="29.3468678594546" y2="29.3468636518843"/>
    <line stroke="rgb(0,0,0)" x1="29.3468678594546" y1="29.3468636518843" x2="28.1051731434373" y2="30.2931622714838"/>
    <line stroke="rgb(0,0,0)" x1="28.1051731434373" y1="30.2931622714838" x2="26.6586850515486" y2="30.8940056014885"/>
    <line stroke="rgb(0,0,0)" x1="26.6586850515486" y1="30.8940056014885" x2="25.1059751492456" y2="31.0999970247987"/>
    <line stroke="rgb(0,0,0)" x1="25.1059751492456" y1="31.0999970247987" x2="23.5528580503959" y2="30.8970985663326"/>
    <line stroke="rgb(0,0,0)" x1="23.5528580503959" y1="30.8970985663326" x2="22.1051761186388" y2="30.2991374207294"/>
    <line stroke="rgb(0,0,0)" x1="22.1051761186388" y1="30.2991374207294" x2="20.8615864852159" y2="29.3468636518843"/>
    <line stroke="rgb(0,0,0)" x1="38.0488895107812" y1="24.7094477644754" x2="38.1000007713475" y2="25.0976763321292"/>
    <line stroke="rgb(0,0,0)" x1="38.1000007713475" y1="25.0976763321292" x2="38.0488895107812" y2="25.485904899783"/>
    <line stroke="rgb(0,0,0)" x1="38.0488895107812" y1="25.485904899783" x2="37.8990388770242" y2="25.8476763321292"/>
    <line stroke="rgb(0,0,0)" x1="37.8990388770242" y1="25.8476763321292" x2="37.6606609431274" y2="26.158336503909"/>
    <line stroke="rgb(0,0,0)" x1="37.6606609431274" y1="26.158336503909" x2="37.3500007713476" y2="26.3967144378058"/>
    <line stroke="rgb(0,0,0)" x1="37.3500007713476" y1="26.3967144378058" x2="36.9882293390013" y2="26.5465650715628"/>
    <line stroke="rgb(0,0,0)" x1="36.9882293390013" y1="26.5465650715628" x2="36.6000007713476" y2="26.5976763321292"/>
    <line stroke="rgb(0,0,0)" x1="36.6000007713476" y1="26.5976763321292" x2="36.2117722036938" y2="26.5465650715628"/>
    <line stroke="rgb(0,0,0)" x1="36.2117722036938" y1="26.5465650715628" x2="35.8500007713476" y2="26.3967144378059"/>
    <line stroke="rgb(0,0,0)" x1="35.8500007713476" y1="26.3967144378059" x2="35.5393405995677" y2="26.158336503909"/>
    <line stroke="rgb(0,0,0)" x1="35.5393405995677" y1="26.158336503909" x2="35.3009626656709" y2="25.8476763321292"/>
    <line stroke="rgb(0,0,0)" x1="35.3009626656709" y1="25.8476763321292" x2="35.151112031914" y2="25.485904899783"/>
    <line stroke="rgb(0,0,0)" x1="35.151112031914" y1="25.485904899783" x2="35.1000007713476" y2="25.0976763321292"/>
    <line stroke="rgb(0,0,0)" x1="35.1000007713476" y1="25.0976763321292" x2="35.151112031914" y2="24.7094477644754"/>
    <line stroke="rgb(0,0,0)" x1="35.151112031914" y1="24.7094477644754" x2="35.3009626656709" y2="24.3476763321292"/>
    <line stroke="rgb(0,0,0)" x1="35.3009626656709" y1="24.3476763321292" x2="35.5393405995677" y2="24.0370161603494"/>
    <line stroke="rgb(0,0,0)" x1="35.5393405995677" y1="24.0370161603494" x2="35.8500007713476" y2="23.7986382264526"/>
    <line stroke="rgb(0,0,0)" x1="35.8500007713476" y1="23.7986382264526" x2="36.2117722036938" y2="23.6487875926956"/>
    <line stroke="rgb(0,0,0)" x1="36.2117722036938" y1="23.6487875926956" x2="36.6000007713476" y2="23.5976763321292"/>
    <line stroke="rgb(0,0,0)" x1="36.6000007713476" y1="23.5976763321292" x2="36.9882293390013" y2="23.6487875926956"/>
    <line stroke="rgb(0,0,0)" x1="36.9882293390013" y1="23.6487875926956" x2="37.3500007713476" y2="23.7986382264526"/>
    <line stroke="rgb(0,0,0)" x1="37.3500007713476" y1="23.7986382264526" x2="37.6606609431274" y2="24.0370161603494"/>
    <line stroke="rgb(0,0,0)" x1="37.6606609431274" y1="24.0370161603494" x2="37.8990388770242" y2="24.3476763321292"/>
    <line stroke="rgb(0,0,0)" x1="37.8990388770242" y1="24.3476763321292" x2="38.0488895107812" y2="24.7094477644754"/>
    <line stroke="rgb(0,0,0)" x1="20.6510500754089" y1="35.810454645463" x2="20.4126721415121" y2="36.1211148172428"/>
    <line stroke="rgb(0,0,0)" x1="20.4126721415121" y1="36.1211148172428" x2="20.1020119697323" y2="36.3594927511397"/>
    <line stroke="rgb(0,0,0)" x1="20.1020119697323" y1="36.3594927511397" x2="19.7402405373861" y2="36.5093433848966"/>
    <line stroke="rgb(0,0,0)" x1="19.7402405373861" y1="36.5093433848966" x2="19.3520119697323" y2="36.560454645463"/>
    <line stroke="rgb(0,0,0)" x1="19.3520119697323" y1="36.560454645463" x2="18.9637834020785" y2="36.5093433848966"/>
    <line stroke="rgb(0,0,0)" x1="18.9637834020785" y1="36.5093433848966" x2="18.6020119697323" y2="36.3594927511397"/>
    <line stroke="rgb(0,0,0)" x1="18.6020119697323" y1="36.3594927511397" x2="18.2913517979525" y2="36.1211148172428"/>
    <line stroke="rgb(0,0,0)" x1="18.2913517979525" y1="36.1211148172428" x2="18.0529738640557" y2="35.810454645463"/>
    <line stroke="rgb(0,0,0)" x1="18.0529738640557" y1="35.810454645463" x2="17.9031232302987" y2="35.4486832131168"/>
    <line stroke="rgb(0,0,0)" x1="17.9031232302987" y1="35.4486832131168" x2="17.8520119697323" y2="35.060454645463"/>
    <line stroke="rgb(0,0,0)" x1="17.8520119697323" y1="35.060454645463" x2="17.9031232302987" y2="34.6722260778092"/>
    <line stroke="rgb(0,0,0)" x1="17.9031232302987" y1="34.6722260778092" x2="18.0529738640557" y2="34.310454645463"/>
    <line stroke="rgb(0,0,0)" x1="18.0529738640557" y1="34.310454645463" x2="18.2913517979525" y2="33.9997944736832"/>
    <line stroke="rgb(0,0,0)" x1="18.2913517979525" y1="33.9997944736832" x2="18.6020119697323" y2="33.7614165397864"/>
    <line stroke="rgb(0,0,0)" x1="18.6020119697323" y1="33.7614165397864" x2="18.9637834020785" y2="33.6115659060294"/>
    <line stroke="rgb(0,0,0)" x1="18.9637834020785" y1="33.6115659060294" x2="19.3520119697323" y2="33.560454645463"/>
    <line stroke="rgb(0,0,0)" x1="19.3520119697323" y1="33.560454645463" x2="19.7402405373861" y2="33.6115659060294"/>
    <line stroke="rgb(0,0,0)" x1="19.7402405373861" y1="33.6115659060294" x2="20.1020119697323" y2="33.7614165397864"/>
    <line stroke="rgb(0,0,0)" x1="20.1020119697323" y1="33.7614165397864" x2="20.4126721415121" y2="33.9997944736832"/>
    <line stroke="rgb(0,0,0)" x1="20.4126721415121" y1="33.9997944736832" x2="20.6510500754089" y2="34.310454645463"/>
    <line stroke="rgb(0,0,0)" x1="20.6510500754089" y1="34.310454645463" x2="20.8009007091659" y2="34.6722260778092"/>
    <line stroke="rgb(0,0,0)" x1="20.8009007091659" y1="34.6722260778092" x2="20.8520119697323" y2="35.060454645463"/>
    <line stroke="rgb(0,0,0)" x1="20.8520119697323" y1="35.060454645463" x2="20.8009007091659" y2="35.4486832131168"/>
    <line stroke="rgb(0,0,0)" x1="20.8009007091659" y1="35.4486832131168" x2="20.6510500754089" y2="35.810454645463"/>
    <line stroke="rgb(0,0,0)" x1="32.1510508467565" y1="34.3081309775922" x2="32.3009014805135" y2="34.6699024099384"/>
    <line stroke="rgb(0,0,0)" x1="32.3009014805135" y1="34.6699024099384" x2="32.3520127410799" y2="35.0581309775922"/>
    <line stroke="rgb(0,0,0)" x1="32.3520127410799" y1="35.0581309775922" x2="32.3009014805135" y2="35.446359545246"/>
    <line stroke="rgb(0,0,0)" x1="32.3009014805135" y1="35.446359545246" x2="32.1510508467565" y2="35.8081309775922"/>
    <line stroke="rgb(0,0,0)" x1="32.1510508467565" y1="35.8081309775922" x2="31.9126729128597" y2="36.1187911493721"/>
    <line stroke="rgb(0,0,0)" x1="31.9126729128597" y1="36.1187911493721" x2="31.6020127410799" y2="36.3571690832689"/>
    <line stroke="rgb(0,0,0)" x1="31.6020127410799" y1="36.3571690832689" x2="31.2402413087336" y2="36.5070197170258"/>
    <line stroke="rgb(0,0,0)" x1="31.2402413087336" y1="36.5070197170258" x2="30.8520127410799" y2="36.5581309775922"/>
    <line stroke="rgb(0,0,0)" x1="30.8520127410799" y1="36.5581309775922" x2="30.4637841734261" y2="36.5070197170258"/>
    <line stroke="rgb(0,0,0)" x1="30.4637841734261" y1="36.5070197170258" x2="30.1020127410799" y2="36.3571690832689"/>
    <line stroke="rgb(0,0,0)" x1="30.1020127410799" y1="36.3571690832689" x2="29.7913525693001" y2="36.118791149372"/>
    <line stroke="rgb(0,0,0)" x1="29.7913525693001" y1="36.118791149372" x2="29.5529746354032" y2="35.8081309775922"/>
    <line stroke="rgb(0,0,0)" x1="29.5529746354032" y1="35.8081309775922" x2="29.4031240016463" y2="35.446359545246"/>
    <line stroke="rgb(0,0,0)" x1="29.4031240016463" y1="35.446359545246" x2="29.3520127410799" y2="35.0581309775922"/>
    <line stroke="rgb(0,0,0)" x1="29.3520127410799" y1="35.0581309775922" x2="29.4031240016463" y2="34.6699024099384"/>
    <line stroke="rgb(0,0,0)" x1="29.4031240016463" y1="34.6699024099384" x2="29.5529746354032" y2="34.3081309775922"/>
    <line stroke="rgb(0,0,0)" x1="29.5529746354032" y1="34.3081309775922" x2="29.7913525693001" y2="33.9974708058124"/>
    <line stroke="rgb(0,0,0)" x1="29.7913525693001" y1="33.9974708058124" x2="30.1020127410799" y2="33.7590928719156"/>
    <line stroke="rgb(0,0,0)" x1="30.1020127410799" y1="33.7590928719156" x2="30.4637841734261" y2="33.6092422381586"/>
    <line stroke="rgb(0,0,0)" x1="30.4637841734261" y1="33.6092422381586" x2="30.8520127410799" y2="33.5581309775922"/>
    <line stroke="rgb(0,0,0)" x1="30.8520127410799" y1="33.5581309775922" x2="31.2402413087336" y2="33.6092422381586"/>
    <line stroke="rgb(0,0,0)" x1="31.2402413087336" y1="33.6092422381586" x2="31.6020127410799" y2="33.7590928719156"/>
    <line stroke="rgb(0,0,0)" x1="31.6020127410799" y1="33.7590928719156" x2="31.9126729128597" y2="33.9974708058124"/>
    <line stroke="rgb(0,0,0)" x1="31.9126729128597" y1="33.9974708058124" x2="32.1510508467565" y2="34.3081309775922"/>
  </g>
  <g id="face1" fill="none" stroke="rgb(0,0,0)" stroke-width=".1" stroke-miterlimit="4" stroke-dasharray="none" stroke-linejoin="round" stroke-linecap="round">
    <line stroke="rgb(0,0,0)" x1="38.0903810567666" y1="17.6" x2="30.2931622714839" y2="22.0948268565625"/>
    <line stroke="rgb(0,0,0)" x1="30.2931622714839" y1="22.0948268565625" x2="30.3133579870882" y2="22.143446622598"/>
  </g>
  <g id="face2" fill="none" stroke="rgb(0,0,0)" stroke-width=".1" stroke-miterlimit="4" stroke-dasharray="none" stroke-linejoin="round" stroke-linecap="round">
    <line stroke="rgb(0,0,0)" x1="12.1096189432334" y1="32.6" x2="12.2041003055059" y2="32.7231305085741"/>
    <line stroke="rgb(0,0,0)" x1="19.9693972754827" y1="28.1865344388944" x2="19.9068377285161" y2="28.1051731434373"/>
    <line stroke="rgb(0,0,0)" x1="19.9068377285161" y1="28.1051731434373" x2="19.3059943985115" y2="26.6586850515486"/>
    <line stroke="rgb(0,0,0)" x1="19.3059943985115" y1="26.6586850515486" x2="19.1000029752013" y2="25.1059751492455"/>
    <line stroke="rgb(0,0,0)" x1="19.1000029752013" y1="25.1059751492455" x2="19.3029014336673" y2="23.5528580503959"/>
    <line stroke="rgb(0,0,0)" x1="19.3029014336673" y1="23.5528580503959" x2="19.9008625792706" y2="22.1051761186389"/>
    <line stroke="rgb(0,0,0)" x1="19.9008625792706" y1="22.1051761186389" x2="20.8531363481156" y2="20.8615864852159"/>
    <line stroke="rgb(0,0,0)" x1="20.8531363481156" y1="20.8615864852159" x2="22.0948268565626" y2="19.9068377285162"/>
    <line stroke="rgb(0,0,0)" x1="22.0948268565626" y1="19.9068377285162" x2="23.5413149484514" y2="19.3059943985115"/>
    <line stroke="rgb(0,0,0)" x1="23.5413149484514" y1="19.3059943985115" x2="25.0940248507544" y2="19.1000029752014"/>
    <line stroke="rgb(0,0,0)" x1="25.0940248507544" y1="19.1000029752014" x2="26.6471419496041" y2="19.3029014336674"/>
    <line stroke="rgb(0,0,0)" x1="26.6471419496041" y1="19.3029014336674" x2="28.0948238813613" y2="19.9008625792706"/>
    <line stroke="rgb(0,0,0)" x1="28.0948238813613" y1="19.9008625792706" x2="29.338413514784" y2="20.8531363481155"/>
    <line stroke="rgb(0,0,0)" x1="29.338413514784" y1="20.8531363481155" x2="30.2931622714839" y2="22.0948268565625"/>
    <line stroke="rgb(0,0,0)" x1="38.0903810567666" y1="17.6" x2="35.7066017177982" y2="14.4933982822018"/>
    <line stroke="rgb(0,0,0)" x1="35.7066017177982" y1="14.4933982822018" x2="32.6" y2="12.1096189432334"/>
    <line stroke="rgb(0,0,0)" x1="32.6" y1="12.1096189432334" x2="28.9822856765378" y2="10.611112605664"/>
    <line stroke="rgb(0,0,0)" x1="28.9822856765378" y1="10.611112605664" x2="25.1" y2="10.1"/>
    <line stroke="rgb(0,0,0)" x1="25.1" y1="10.1" x2="21.2177143234622" y2="10.611112605664"/>
    <line stroke="rgb(0,0,0)" x1="21.2177143234622" y1="10.611112605664" x2="17.6" y2="12.1096189432334"/>
    <line stroke="rgb(0,0,0)" x1="17.6" y1="12.1096189432334" x2="14.4933982822018" y2="14.4933982822018"/>
    <line stroke="rgb(0,0,0)" x1="14.4933982822018" y1="14.4933982822018" x2="12.1096189432334" y2="17.6"/>
    <line stroke="rgb(0,0,0)" x1="12.1096189432334" y1="17.6" x2="10.611112605664" y2="21.2177143234622"/>
    <line stroke="rgb(0,0,0)" x1="10.611112605664" y1="21.2177143234622" x2="10.1" y2="25.1"/>
    <line stroke="rgb(0,0,0)" x1="10.1" y1="25.1" x2="10.611112605664" y2="28.9822856765378"/>
    <line stroke="rgb(0,0,0)" x1="10.611112605664" y1="28.9822856765378" x2="12.1096189432334" y2="32.6"/>
    <line stroke="rgb(0,0,0)" x1="13.5999992286525" y1="26.6023236678708" x2="13.2117706609987" y2="26.5512124073044"/>
    <line stroke="rgb(0,0,0)" x1="13.2117706609987" y1="26.5512124073044" x2="12.8499992286524" y2="26.4013617735475"/>
    <line stroke="rgb(0,0,0)" x1="12.8499992286524" y1="26.4013617735475" x2="12.5393390568726" y2="26.1629838396506"/>
    <line stroke="rgb(0,0,0)" x1="12.5393390568726" y1="26.1629838396506" x2="12.3009611229758" y2="25.8523236678708"/>
    <line stroke="rgb(0,0,0)" x1="12.3009611229758" y1="25.8523236678708" x2="12.1511104892188" y2="25.4905522355246"/>
    <line stroke="rgb(0,0,0)" x1="12.1511104892188" y1="25.4905522355246" x2="12.0999992286525" y2="25.1023236678708"/>
    <line stroke="rgb(0,0,0)" x1="12.0999992286525" y1="25.1023236678708" x2="12.1511104892188" y2="24.714095100217"/>
    <line stroke="rgb(0,0,0)" x1="12.1511104892188" y1="24.714095100217" x2="12.3009611229758" y2="24.3523236678708"/>
    <line stroke="rgb(0,0,0)" x1="12.3009611229758" y1="24.3523236678708" x2="12.5393390568726" y2="24.041663496091"/>
    <line stroke="rgb(0,0,0)" x1="12.5393390568726" y1="24.041663496091" x2="12.8499992286525" y2="23.8032855621942"/>
    <line stroke="rgb(0,0,0)" x1="12.8499992286525" y1="23.8032855621942" x2="13.2117706609987" y2="23.6534349284372"/>
    <line stroke="rgb(0,0,0)" x1="13.2117706609987" y1="23.6534349284372" x2="13.5999992286525" y2="23.6023236678708"/>
    <line stroke="rgb(0,0,0)" x1="13.5999992286525" y1="23.6023236678708" x2="13.9882277963062" y2="23.6534349284372"/>
    <line stroke="rgb(0,0,0)" x1="13.9882277963062" y1="23.6534349284372" x2="14.3499992286524" y2="23.8032855621942"/>
    <line stroke="rgb(0,0,0)" x1="14.3499992286524" y1="23.8032855621942" x2="14.6606594004323" y2="24.041663496091"/>
    <line stroke="rgb(0,0,0)" x1="14.6606594004323" y1="24.041663496091" x2="14.8990373343291" y2="24.3523236678708"/>
    <line stroke="rgb(0,0,0)" x1="14.8990373343291" y1="24.3523236678708" x2="15.048887968086" y2="24.714095100217"/>
    <line stroke="rgb(0,0,0)" x1="15.048887968086" y1="24.714095100217" x2="15.0999992286525" y2="25.1023236678708"/>
    <line stroke="rgb(0,0,0)" x1="15.0999992286525" y1="25.1023236678708" x2="15.048887968086" y2="25.4905522355246"/>
    <line stroke="rgb(0,0,0)" x1="15.048887968086" y1="25.4905522355246" x2="14.8990373343291" y2="25.8523236678708"/>
    <line stroke="rgb(0,0,0)" x1="14.8990373343291" y1="25.8523236678708" x2="14.6606594004323" y2="26.1629838396506"/>
    <line stroke="rgb(0,0,0)" x1="14.6606594004323" y1="26.1629838396506" x2="14.3499992286524" y2="26.4013617735475"/>
    <line stroke="rgb(0,0,0)" x1="14.3499992286524" y1="26.4013617735475" x2="13.9882277963062" y2="26.5512124073044"/>
    <line stroke="rgb(0,0,0)" x1="13.9882277963062" y1="26.5512124073044" x2="13.5999992286525" y2="26.6023236678708"/>
    <line stroke="rgb(0,0,0)" x1="18.0489491532435" y1="15.8918690224078" x2="17.8990985194866" y2="15.5300975900616"/>
    <line stroke="rgb(0,0,0)" x1="17.8990985194866" y1="15.5300975900616" x2="17.8479872589202" y2="15.1418690224078"/>
    <line stroke="rgb(0,0,0)" x1="17.8479872589202" y1="15.1418690224078" x2="17.8990985194866" y2="14.753640454754"/>
    <line stroke="rgb(0,0,0)" x1="17.8990985194866" y1="14.753640454754" x2="18.0489491532435" y2="14.3918690224078"/>
    <line stroke="rgb(0,0,0)" x1="18.0489491532435" y1="14.3918690224078" x2="18.2873270871403" y2="14.0812088506279"/>
    <line stroke="rgb(0,0,0)" x1="18.2873270871403" y1="14.0812088506279" x2="18.5979872589202" y2="13.8428309167311"/>
    <line stroke="rgb(0,0,0)" x1="18.5979872589202" y1="13.8428309167311" x2="18.9597586912664" y2="13.6929802829742"/>
    <line stroke="rgb(0,0,0)" x1="18.9597586912664" y1="13.6929802829742" x2="19.3479872589201" y2="13.6418690224078"/>
    <line stroke="rgb(0,0,0)" x1="19.3479872589201" y1="13.6418690224078" x2="19.7362158265739" y2="13.6929802829742"/>
    <line stroke="rgb(0,0,0)" x1="19.7362158265739" y1="13.6929802829742" x2="20.0979872589201" y2="13.8428309167311"/>
    <line stroke="rgb(0,0,0)" x1="20.0979872589201" y1="13.8428309167311" x2="20.4086474307" y2="14.081208850628"/>
    <line stroke="rgb(0,0,0)" x1="20.4086474307" y1="14.081208850628" x2="20.6470253645968" y2="14.3918690224078"/>
    <line stroke="rgb(0,0,0)" x1="20.6470253645968" y1="14.3918690224078" x2="20.7968759983538" y2="14.753640454754"/>
    <line stroke="rgb(0,0,0)" x1="20.7968759983538" y1="14.753640454754" x2="20.8479872589201" y2="15.1418690224078"/>
    <line stroke="rgb(0,0,0)" x1="20.8479872589201" y1="15.1418690224078" x2="20.7968759983538" y2="15.5300975900615"/>
    <line stroke="rgb(0,0,0)" x1="20.7968759983538" y1="15.5300975900615" x2="20.6470253645968" y2="15.8918690224078"/>
    <line stroke="rgb(0,0,0)" x1="20.6470253645968" y1="15.8918690224078" x2="20.4086474307" y2="16.2025291941876"/>
    <line stroke="rgb(0,0,0)" x1="20.4086474307" y1="16.2025291941876" x2="20.0979872589202" y2="16.4409071280844"/>
    <line stroke="rgb(0,0,0)" x1="20.0979872589202" y1="16.4409071280844" x2="19.736215826574" y2="16.5907577618414"/>
    <line stroke="rgb(0,0,0)" x1="19.736215826574" y1="16.5907577618414" x2="19.3479872589202" y2="16.6418690224078"/>
    <line stroke="rgb(0,0,0)" x1="19.3479872589202" y1="16.6418690224078" x2="18.9597586912664" y2="16.5907577618414"/>
    <line stroke="rgb(0,0,0)" x1="18.9597586912664" y1="16.5907577618414" x2="18.5979872589202" y2="16.4409071280844"/>
    <line stroke="rgb(0,0,0)" x1="18.5979872589202" y1="16.4409071280844" x2="18.2873270871403" y2="16.2025291941876"/>
    <line stroke="rgb(0,0,0)" x1="18.2873270871403" y1="16.2025291941876" x2="18.0489491532435" y2="15.8918690224078"/>
    <line stroke="rgb(0,0,0)" x1="29.548949924591" y1="14.389545354537" x2="29.7873278584879" y2="14.0788851827571"/>
    <line stroke="rgb(0,0,0)" x1="29.7873278584879" y1="14.0788851827571" x2="30.0979880302677" y2="13.8405072488603"/>
    <line stroke="rgb(0,0,0)" x1="30.0979880302677" y1="13.8405072488603" x2="30.4597594626139" y2="13.6906566151033"/>
    <line stroke="rgb(0,0,0)" x1="30.4597594626139" y1="13.6906566151033" x2="30.8479880302677" y2="13.6395453545369"/>
    <line stroke="rgb(0,0,0)" x1="30.8479880302677" y1="13.6395453545369" x2="31.2362165979215" y2="13.6906566151033"/>
    <line stroke="rgb(0,0,0)" x1="31.2362165979215" y1="13.6906566151033" x2="31.5979880302677" y2="13.8405072488603"/>
    <line stroke="rgb(0,0,0)" x1="31.5979880302677" y1="13.8405072488603" x2="31.9086482020475" y2="14.0788851827571"/>
    <line stroke="rgb(0,0,0)" x1="31.9086482020475" y1="14.0788851827571" x2="32.1470261359444" y2="14.389545354537"/>
    <line stroke="rgb(0,0,0)" x1="32.1470261359444" y1="14.389545354537" x2="32.2968767697013" y2="14.7513167868832"/>
    <line stroke="rgb(0,0,0)" x1="32.2968767697013" y1="14.7513167868832" x2="32.3479880302677" y2="15.1395453545369"/>
    <line stroke="rgb(0,0,0)" x1="32.3479880302677" y1="15.1395453545369" x2="32.2968767697013" y2="15.5277739221907"/>
    <line stroke="rgb(0,0,0)" x1="32.2968767697013" y1="15.5277739221907" x2="32.1470261359444" y2="15.889545354537"/>
    <line stroke="rgb(0,0,0)" x1="32.1470261359444" y1="15.889545354537" x2="31.9086482020475" y2="16.2002055263168"/>
    <line stroke="rgb(0,0,0)" x1="31.9086482020475" y1="16.2002055263168" x2="31.5979880302677" y2="16.4385834602136"/>
    <line stroke="rgb(0,0,0)" x1="31.5979880302677" y1="16.4385834602136" x2="31.2362165979215" y2="16.5884340939705"/>
    <line stroke="rgb(0,0,0)" x1="31.2362165979215" y1="16.5884340939705" x2="30.8479880302677" y2="16.6395453545369"/>
    <line stroke="rgb(0,0,0)" x1="30.8479880302677" y1="16.6395453545369" x2="30.4597594626139" y2="16.5884340939705"/>
    <line stroke="rgb(0,0,0)" x1="30.4597594626139" y1="16.5884340939705" x2="30.0979880302677" y2="16.4385834602136"/>
    <line stroke="rgb(0,0,0)" x1="30.0979880302677" y1="16.4385834602136" x2="29.7873278584879" y2="16.2002055263168"/>
    <line stroke="rgb(0,0,0)" x1="29.7873278584879" y1="16.2002055263168" x2="29.5489499245911" y2="15.889545354537"/>
    <line stroke="rgb(0,0,0)" x1="29.5489499245911" y1="15.889545354537" x2="29.3990992908341" y2="15.5277739221907"/>
    <line stroke="rgb(0,0,0)" x1="29.3990992908341" y1="15.5277739221907" x2="29.3479880302677" y2="15.1395453545369"/>
    <line stroke="rgb(0,0,0)" x1="29.3479880302677" y1="15.1395453545369" x2="29.3990992908341" y2="14.7513167868832"/>
    <line stroke="rgb(0,0,0)" x1="29.3990992908341" y1="14.7513167868832" x2="29.548949924591" y2="14.389545354537"/>
  </g>
  <g id="face3" fill="none" stroke="rgb(0,0,0)" stroke-width=".1" stroke-miterlimit="4" stroke-dasharray="none" stroke-linejoin="round" stroke-linecap="round">
  </g>
  <g id="face4" fill="none" stroke="rgb(0,0,0)" stroke-width=".1" stroke-miterlimit="4" stroke-dasharray="none" stroke-linejoin="round" stroke-linecap="round">
  </g>
  <g id="face5" fill="none" stroke="rgb(0,0,0)" stroke-width=".1" stroke-miterlimit="4" stroke-dasharray="none" stroke-linejoin="round" stroke-linecap="round">
  </g>
  <g id="face6" fill="none" stroke="rgb(0,0,0)" stroke-width=".1" stroke-miterlimit="4" stroke-dasharray="none" stroke-linejoin="round" stroke-linecap="round">
  </g>
  <g id="face7" fill="none" stroke="rgb(0,0,0)" stroke-width=".1" stroke-miterlimit="4" stroke-dasharray="none" stroke-linejoin="round" stroke-linecap="round">
  </g>
  <g id="face8" fill="none" stroke="rgb(0,0,0)" stroke-width=".1" stroke-miterlimit="4" stroke-dasharray="none" stroke-linejoin="round" stroke-linecap="round">
  </g>
  <g id="face9" fill="none" stroke="rgb(0,0,0)" stroke-width=".1" stroke-miterlimit="4" stroke-dasharray="none" stroke-linejoin="round" stroke-linecap="round">
    <line x1="50.1" y1="50.1" x2="50.1" y2="0.1"/>
    <line x1="50.1" y1="0.1" x2="0.1" y2="0.1"/>
    <line x1="0.1" y1="0.1" x2="0.1" y2="50.1"/>
    <line x1="0.1" y1="50.1" x2="50.1" y2="50.1"/>
  </g>
  <g id="face10" fill="none" stroke="rgb(0,0,0)" stroke-width=".1" stroke-miterlimit="4" stroke-dasharray="none" stroke-linejoin="round" stroke-linecap="round">
  </g>
</svg>
