<?xml version="1.0" encoding="UTF-8" standalone="no"?>
<svg
   xmlns:dc="http://purl.org/dc/elements/1.1/"
   xmlns:cc="http://creativecommons.org/ns#"
   xmlns:rdf="http://www.w3.org/1999/02/22-rdf-syntax-ns#"
   xmlns:svg="http://www.w3.org/2000/svg"
   xmlns="http://www.w3.org/2000/svg"
   xmlns:sodipodi="http://sodipodi.sourceforge.net/DTD/sodipodi-0.dtd"
   xmlns:inkscape="http://www.inkscape.org/namespaces/inkscape"
   width="590.0mm"
   height="260.000000000005mm"
   viewBox="0 0 590.0 260.000000000005"
   version="1.1"
   id="svg2"
   inkscape:version="0.48.4 r9939"
   sodipodi:docname="kossel_fan_mount_metrix.ink.svg">
  <metadata
     id="metadata2438">
    <rdf:RDF>
      <cc:Work
         rdf:about="">
        <dc:format>image/svg+xml</dc:format>
        <dc:type
           rdf:resource="http://purl.org/dc/dcmitype/StillImage" />
        <dc:title></dc:title>
      </cc:Work>
    </rdf:RDF>
  </metadata>
  <defs
     id="defs2436">
    <clipPath
       clipPathUnits="userSpaceOnUse"
       id="clipPath5439">
      <path
         inkscape:connector-curvature="0"
         d="M 0,251 200,251 200,0 0,0 0,251 z"
         id="path5441" />
    </clipPath>
  </defs>
  <sodipodi:namedview
     pagecolor="#ffffff"
     bordercolor="#666666"
     borderopacity="1"
     objecttolerance="10"
     gridtolerance="10"
     guidetolerance="10"
     inkscape:pageopacity="0"
     inkscape:pageshadow="2"
     inkscape:window-width="2560"
     inkscape:window-height="1377"
     id="namedview2434"
     showgrid="false"
     showguides="true"
     inkscape:guide-bbox="true"
     inkscape:object-nodes="true"
     inkscape:zoom="0.77389172"
     inkscape:cx="950.78451"
     inkscape:cy="655.84207"
     inkscape:window-x="-8"
     inkscape:window-y="-8"
     inkscape:window-maximized="1"
     inkscape:current-layer="face0"
     inkscape:snap-global="false">
    <sodipodi:guide
       orientation="1,0"
       position="1846.6119,478.22242"
       id="guide5417" />
    <sodipodi:guide
       orientation="1,0"
       position="1341.3111,336.7382"
       id="guide5419" />
    <sodipodi:guide
       orientation="0,1"
       position="1462.5833,154.82985"
       id="guide5421" />
    <sodipodi:guide
       orientation="0,1"
       position="1462.5833,660.13076"
       id="guide5423" />
  </sodipodi:namedview>
  <desc
     id="desc4">Output from Flights of Ideas SVG Sketchup Plugin</desc>
  <g
     id="text_annotations"
     font-size="10"
     stroke="rgb(255,0,0)"
     stroke-width="1" />
  <g
     id="face0"
     fill="none"
     stroke="rgb(0,0,255)"
     stroke-width="1"
     stroke-miterlimit="4"
     stroke-dasharray="none"
     stroke-linejoin="round"
     stroke-linecap="round">
    <line
       x1="580.0"
       y1="247.0"
       x2="580.0"
       y2="43.0"
       id="line8" />
    <line
       x1="580.0"
       y1="43.0"
       x2="579.974334584122"
       y2="42.6084214233398"
       id="line10" />
    <line
       x1="579.974334584122"
       y1="42.6084214233398"
       x2="579.897777478867"
       y2="42.2235428646924"
       id="line12" />
    <line
       x1="579.897777478867"
       y1="42.2235428646924"
       x2="579.771638597534"
       y2="41.8519497029047"
       id="line14" />
    <line
       x1="579.771638597534"
       y1="41.8519497029047"
       x2="579.598076211353"
       y2="41.5"
       id="line16" />
    <line
       x1="579.598076211353"
       y1="41.5"
       x2="579.380060020874"
       y2="41.1737157129739"
       id="line18" />
    <line
       x1="579.380060020874"
       y1="41.1737157129739"
       x2="579.12132034356"
       y2="40.8786796564403"
       id="line20" />
    <line
       x1="579.12132034356"
       y1="40.8786796564403"
       x2="578.826284287026"
       y2="40.6199399791263"
       id="line22" />
    <line
       x1="578.826284287026"
       y1="40.6199399791263"
       x2="578.5"
       y2="40.4019237886467"
       id="line24" />
    <line
       x1="578.5"
       y1="40.4019237886467"
       x2="578.148050297095"
       y2="40.2283614024661"
       id="line26" />
    <line
       x1="578.148050297095"
       y1="40.2283614024661"
       x2="577.776457135308"
       y2="40.1022225211328"
       id="line28" />
    <line
       x1="577.776457135308"
       y1="40.1022225211328"
       x2="577.39157857666"
       y2="40.0256654158786"
       id="line30" />
    <line
       x1="577.39157857666"
       y1="40.0256654158786"
       x2="577.0"
       y2="40.0"
       id="line32" />
    <line
       x1="577.0"
       y1="40.0"
       x2="112.0"
       y2="40.0000000000002"
       id="line34" />
    <line
       x1="112.0"
       y1="40.0000000000002"
       x2="112.0"
       y2="12.9999999999999"
       id="line36" />
    <line
       x1="112.0"
       y1="12.9999999999999"
       x2="111.974334584122"
       y2="12.6084214233398"
       id="line38" />
    <line
       x1="111.974334584122"
       y1="12.6084214233398"
       x2="111.897777478867"
       y2="12.2235428646924"
       id="line40" />
    <line
       x1="111.897777478867"
       y1="12.2235428646924"
       x2="111.771638597534"
       y2="11.8519497029046"
       id="line42" />
    <line
       x1="111.771638597534"
       y1="11.8519497029046"
       x2="111.598076211353"
       y2="11.5000000000001"
       id="line44" />
    <line
       x1="111.598076211353"
       y1="11.5000000000001"
       x2="111.380060020874"
       y2="11.173715712974"
       id="line46" />
    <line
       x1="111.380060020874"
       y1="11.173715712974"
       x2="111.12132034356"
       y2="10.8786796564405"
       id="line48" />
    <line
       x1="111.12132034356"
       y1="10.8786796564405"
       x2="110.826284287026"
       y2="10.6199399791265"
       id="line50" />
    <line
       x1="110.826284287026"
       y1="10.6199399791265"
       x2="110.5"
       y2="10.4019237886467"
       id="line52" />
    <line
       x1="110.5"
       y1="10.4019237886467"
       x2="110.148050297095"
       y2="10.2283614024661"
       id="line54" />
    <line
       x1="110.148050297095"
       y1="10.2283614024661"
       x2="109.776457135308"
       y2="10.1022225211329"
       id="line56" />
    <line
       x1="109.776457135308"
       y1="10.1022225211329"
       x2="109.39157857666"
       y2="10.0256654158786"
       id="line58" />
    <line
       x1="109.39157857666"
       y1="10.0256654158786"
       x2="109.0"
       y2="10.0000000000001"
       id="line60" />
    <line
       x1="109.0"
       y1="10.0000000000001"
       x2="30.0000000000001"
       y2="10.0"
       id="line62" />
    <line
       x1="30.0000000000001"
       y1="10.0"
       x2="29.60842142334"
       y2="10.0256654158784"
       id="line64" />
    <line
       x1="29.60842142334"
       y1="10.0256654158784"
       x2="29.2235428646926"
       y2="10.1022225211328"
       id="line66" />
    <line
       x1="29.2235428646926"
       y1="10.1022225211328"
       x2="28.8519497029048"
       y2="10.2283614024662"
       id="line68" />
    <line
       x1="28.8519497029048"
       y1="10.2283614024662"
       x2="28.5000000000001"
       y2="10.401923788647"
       id="line70" />
    <line
       x1="28.5000000000001"
       y1="10.401923788647"
       x2="28.1737157129739"
       y2="10.6199399791263"
       id="line72" />
    <line
       x1="28.1737157129739"
       y1="10.6199399791263"
       x2="27.8786796564403"
       y2="10.8786796564403"
       id="line74" />
    <line
       x1="27.8786796564403"
       y1="10.8786796564403"
       x2="27.6199399791265"
       y2="11.1737157129737"
       id="line76" />
    <line
       x1="27.6199399791265"
       y1="11.1737157129737"
       x2="27.4019237886469"
       y2="11.5000000000001"
       id="line78" />
    <line
       x1="27.4019237886469"
       y1="11.5000000000001"
       x2="27.2283614024662"
       y2="11.8519497029046"
       id="line80" />
    <line
       x1="27.2283614024662"
       y1="11.8519497029046"
       x2="27.1022225211328"
       y2="12.2235428646924"
       id="line82" />
    <line
       x1="27.1022225211328"
       y1="12.2235428646924"
       x2="27.0256654158787"
       y2="12.60842142334"
       id="line84" />
    <line
       x1="27.0256654158787"
       y1="12.60842142334"
       x2="27.0000000000002"
       y2="12.9999999999999"
       id="line86" />
    <line
       x1="27.0000000000002"
       y1="12.9999999999999"
       x2="27.0000000000001"
       y2="39.9999999999998"
       id="line88" />
    <line
       x1="27.0000000000001"
       y1="39.9999999999998"
       x2="13.0000000000001"
       y2="39.9999999999999"
       id="line90" />
    <line
       x1="13.0000000000001"
       y1="39.9999999999999"
       x2="12.60842142334"
       y2="40.0256654158786"
       id="line92" />
    <line
       x1="12.60842142334"
       y1="40.0256654158786"
       x2="12.2235428646926"
       y2="40.1022225211328"
       id="line94" />
    <line
       x1="12.2235428646926"
       y1="40.1022225211328"
       x2="11.8519497029048"
       y2="40.2283614024663"
       id="line96" />
    <line
       x1="11.8519497029048"
       y1="40.2283614024663"
       x2="11.5000000000001"
       y2="40.4019237886467"
       id="line98" />
    <line
       x1="11.5000000000001"
       y1="40.4019237886467"
       x2="11.1737157129739"
       y2="40.6199399791265"
       id="line100" />
    <line
       x1="11.1737157129739"
       y1="40.6199399791265"
       x2="10.8786796564405"
       y2="40.8786796564404"
       id="line102" />
    <line
       x1="10.8786796564405"
       y1="40.8786796564404"
       x2="10.6199399791265"
       y2="41.1737157129737"
       id="line104" />
    <line
       x1="10.6199399791265"
       y1="41.1737157129737"
       x2="10.4019237886469"
       y2="41.4999999999999"
       id="line106" />
    <line
       x1="10.4019237886469"
       y1="41.4999999999999"
       x2="10.2283614024662"
       y2="41.8519497029048"
       id="line108" />
    <line
       x1="10.2283614024662"
       y1="41.8519497029048"
       x2="10.1022225211329"
       y2="42.2235428646926"
       id="line110" />
    <line
       x1="10.1022225211329"
       y1="42.2235428646926"
       x2="10.0256654158786"
       y2="42.6084214233397"
       id="line112" />
    <line
       x1="10.0256654158786"
       y1="42.6084214233397"
       x2="10.0"
       y2="43.0000000000002"
       id="line114" />
    <line
       x1="10.0"
       y1="43.0000000000002"
       x2="10.0000000000001"
       y2="247.0"
       id="line116" />
    <line
       x1="10.0000000000001"
       y1="247.0"
       x2="10.0255309065207"
       y2="247.0"
       id="line118" />
    <line
       x1="10.0255309065207"
       y1="247.0"
       x2="10.1022225211328"
       y2="247.776457135259"
       id="line120" />
    <line
       x1="10.1022225211328"
       y1="247.776457135259"
       x2="10.2283614024662"
       y2="248.148050297064"
       id="line122" />
    <line
       x1="10.2283614024662"
       y1="248.148050297064"
       x2="10.4019237886469"
       y2="248.499999999997"
       id="line124" />
    <line
       x1="10.4019237886469"
       y1="248.499999999997"
       x2="10.6199399791265"
       y2="248.826284287014"
       id="line126" />
    <line
       x1="10.6199399791265"
       y1="248.826284287014"
       x2="10.8786796564405"
       y2="249.121320343566"
       id="line128" />
    <line
       x1="10.8786796564405"
       y1="249.121320343566"
       x2="11.1737157129738"
       y2="249.380060020856"
       id="line130" />
    <line
       x1="11.1737157129738"
       y1="249.380060020856"
       x2="11.5000000000001"
       y2="249.598076211348"
       id="line132" />
    <line
       x1="11.5000000000001"
       y1="249.598076211348"
       x2="11.8519497029048"
       y2="249.771638597516"
       id="line134" />
    <line
       x1="11.8519497029048"
       y1="249.771638597516"
       x2="12.2235428646926"
       y2="249.897777478861"
       id="line136" />
    <line
       x1="12.2235428646926"
       y1="249.897777478861"
       x2="12.60842142334"
       y2="249.974334584118"
       id="line138" />
    <line
       x1="12.60842142334"
       y1="249.974334584118"
       x2="13.0000000000001"
       y2="250.000000000005"
       id="line140" />
    <line
       x1="13.0000000000001"
       y1="250.000000000005"
       x2="577.0"
       y2="250.0"
       id="line142" />
    <line
       x1="577.0"
       y1="250.0"
       x2="577.39157857666"
       y2="249.974334584121"
       id="line144" />
    <line
       x1="577.39157857666"
       y1="249.974334584121"
       x2="577.776457135308"
       y2="249.897777478867"
       id="line146" />
    <line
       x1="577.776457135308"
       y1="249.897777478867"
       x2="578.148050297095"
       y2="249.771638597534"
       id="line148" />
    <line
       x1="578.148050297095"
       y1="249.771638597534"
       x2="578.5"
       y2="249.598076211353"
       id="line150" />
    <line
       x1="578.5"
       y1="249.598076211353"
       x2="578.826284287026"
       y2="249.380060020874"
       id="line152" />
    <line
       x1="578.826284287026"
       y1="249.380060020874"
       x2="579.12132034356"
       y2="249.12132034356"
       id="line154" />
    <line
       x1="579.12132034356"
       y1="249.12132034356"
       x2="579.380060020874"
       y2="248.826284287026"
       id="line156" />
    <line
       x1="579.380060020874"
       y1="248.826284287026"
       x2="579.598076211353"
       y2="248.5"
       id="line158" />
    <line
       x1="579.598076211353"
       y1="248.5"
       x2="579.771638597534"
       y2="248.148050297095"
       id="line160" />
    <line
       x1="579.771638597534"
       y1="248.148050297095"
       x2="579.897777478867"
       y2="247.776457135308"
       id="line162" />
    <line
       x1="579.897777478867"
       y1="247.776457135308"
       x2="579.974334584121"
       y2="247.39157857666"
       id="line164" />
    <line
       x1="579.974334584121"
       y1="247.39157857666"
       x2="580.0"
       y2="247.0"
       id="line166" />
    <line
       x1="106.948888739434"
       y1="13.8882285676537"
       x2="106.799038105677"
       y2="14.2500000000001"
       id="line1398" />
    <line
       x1="106.799038105677"
       y1="14.2500000000001"
       x2="106.56066017178"
       y2="14.5606601717799"
       id="line1400" />
    <line
       x1="106.56066017178"
       y1="14.5606601717799"
       x2="106.25"
       y2="14.7990381056769"
       id="line1402" />
    <line
       x1="106.25"
       y1="14.7990381056769"
       x2="105.888228567654"
       y2="14.9488887394336"
       id="line1404" />
    <line
       x1="105.888228567654"
       y1="14.9488887394336"
       x2="105.5"
       y2="15.0000000000001"
       id="line1406" />
    <line
       x1="105.5"
       y1="15.0000000000001"
       x2="105.111771432346"
       y2="14.9488887394335"
       id="line1408" />
    <line
       x1="105.111771432346"
       y1="14.9488887394335"
       x2="104.75"
       y2="14.7990381056766"
       id="line1410" />
    <line
       x1="104.75"
       y1="14.7990381056766"
       x2="104.43933982822"
       y2="14.5606601717799"
       id="line1412" />
    <line
       x1="104.43933982822"
       y1="14.5606601717799"
       x2="104.200961894323"
       y2="14.25"
       id="line1414" />
    <line
       x1="104.200961894323"
       y1="14.25"
       x2="104.051111260566"
       y2="13.8882285676539"
       id="line1416" />
    <line
       x1="104.051111260566"
       y1="13.8882285676539"
       x2="104.0"
       y2="13.4999999999999"
       id="line1418" />
    <line
       x1="104.0"
       y1="13.4999999999999"
       x2="104.051111260566"
       y2="13.1117714323463"
       id="line1420" />
    <line
       x1="104.051111260566"
       y1="13.1117714323463"
       x2="104.200961894323"
       y2="12.75"
       id="line1422" />
    <line
       x1="104.200961894323"
       y1="12.75"
       x2="104.43933982822"
       y2="12.4393398282203"
       id="line1424" />
    <line
       x1="104.43933982822"
       y1="12.4393398282203"
       x2="104.75"
       y2="12.2009618943233"
       id="line1426" />
    <line
       x1="104.75"
       y1="12.2009618943233"
       x2="105.111771432346"
       y2="12.0511112605665"
       id="line1428" />
    <line
       x1="105.111771432346"
       y1="12.0511112605665"
       x2="105.5"
       y2="12.0"
       id="line1430" />
    <line
       x1="105.5"
       y1="12.0"
       x2="105.888228567654"
       y2="12.0511112605662"
       id="line1432" />
    <line
       x1="105.888228567654"
       y1="12.0511112605662"
       x2="106.25"
       y2="12.2009618943234"
       id="line1434" />
    <line
       x1="106.25"
       y1="12.2009618943234"
       x2="106.56066017178"
       y2="12.4393398282205"
       id="line1436" />
    <line
       x1="106.56066017178"
       y1="12.4393398282205"
       x2="106.799038105677"
       y2="12.7500000000001"
       id="line1438" />
    <line
       x1="106.799038105677"
       y1="12.7500000000001"
       x2="106.948888739434"
       y2="13.1117714323463"
       id="line1440" />
    <line
       x1="106.948888739434"
       y1="13.1117714323463"
       x2="107.0"
       y2="13.5000000000001"
       id="line1442" />
    <line
       x1="107.0"
       y1="13.5000000000001"
       x2="106.948888739434"
       y2="13.8882285676537"
       id="line1444" />
    <line
       x1="34.56066017178"
       y1="14.56066017178"
       x2="34.2500000000001"
       y2="14.7990381056769"
       id="line1446" />
    <line
       x1="34.2500000000001"
       y1="14.7990381056769"
       x2="33.8882285676539"
       y2="14.9488887394336"
       id="line1448" />
    <line
       x1="33.8882285676539"
       y1="14.9488887394336"
       x2="33.5000000000002"
       y2="15.0"
       id="line1450" />
    <line
       x1="33.5000000000002"
       y1="15.0"
       x2="33.1117714323462"
       y2="14.9488887394337"
       id="line1452" />
    <line
       x1="33.1117714323462"
       y1="14.9488887394337"
       x2="32.7500000000001"
       y2="14.7990381056768"
       id="line1454" />
    <line
       x1="32.7500000000001"
       y1="14.7990381056768"
       x2="32.4393398282203"
       y2="14.5606601717799"
       id="line1456" />
    <line
       x1="32.4393398282203"
       y1="14.5606601717799"
       x2="32.2009618943235"
       y2="14.2500000000001"
       id="line1458" />
    <line
       x1="32.2009618943235"
       y1="14.2500000000001"
       x2="32.0511112605664"
       y2="13.888228567654"
       id="line1460" />
    <line
       x1="32.0511112605664"
       y1="13.888228567654"
       x2="32.0"
       y2="13.5000000000002"
       id="line1462" />
    <line
       x1="32.0"
       y1="13.5000000000002"
       x2="32.0511112605664"
       y2="13.1117714323463"
       id="line1464" />
    <line
       x1="32.0511112605664"
       y1="13.1117714323463"
       x2="32.2009618943235"
       y2="12.7499999999999"
       id="line1466" />
    <line
       x1="32.2009618943235"
       y1="12.7499999999999"
       x2="32.4393398282203"
       y2="12.4393398282202"
       id="line1468" />
    <line
       x1="32.4393398282203"
       y1="12.4393398282202"
       x2="32.7500000000001"
       y2="12.2009618943234"
       id="line1470" />
    <line
       x1="32.7500000000001"
       y1="12.2009618943234"
       x2="33.1117714323462"
       y2="12.0511112605665"
       id="line1472" />
    <line
       x1="33.1117714323462"
       y1="12.0511112605665"
       x2="33.5000000000001"
       y2="12.0"
       id="line1474" />
    <line
       x1="33.5000000000001"
       y1="12.0"
       x2="33.8882285676539"
       y2="12.0511112605664"
       id="line1476" />
    <line
       x1="33.8882285676539"
       y1="12.0511112605664"
       x2="34.2500000000001"
       y2="12.2009618943233"
       id="line1478" />
    <line
       x1="34.2500000000001"
       y1="12.2009618943233"
       x2="34.5606601717801"
       y2="12.4393398282199"
       id="line1480" />
    <line
       x1="34.5606601717801"
       y1="12.4393398282199"
       x2="34.7990381056768"
       y2="12.7500000000002"
       id="line1482" />
    <line
       x1="34.7990381056768"
       y1="12.7500000000002"
       x2="34.9488887394336"
       y2="13.1117714323463"
       id="line1484" />
    <line
       x1="34.9488887394336"
       y1="13.1117714323463"
       x2="35.0000000000001"
       y2="13.5000000000002"
       id="line1486" />
    <line
       x1="35.0000000000001"
       y1="13.5000000000002"
       x2="34.9488887394336"
       y2="13.888228567654"
       id="line1488" />
    <line
       x1="34.9488887394336"
       y1="13.888228567654"
       x2="34.7990381056768"
       y2="14.2500000000002"
       id="line1490" />
    <line
       x1="34.7990381056768"
       y1="14.2500000000002"
       x2="34.56066017178"
       y2="14.56066017178"
       id="line1492" />
    <line
       x1="34.7990381056769"
       y1="65.7499999999999"
       x2="34.9488887394336"
       y2="66.1117714323465"
       id="line1494" />
    <line
       x1="34.9488887394336"
       y1="66.1117714323465"
       x2="35.0"
       y2="66.5000000000002"
       id="line1496" />
    <line
       x1="35.0"
       y1="66.5000000000002"
       x2="34.9488887394336"
       y2="66.8882285676541"
       id="line1498" />
    <line
       x1="34.9488887394336"
       y1="66.8882285676541"
       x2="34.7990381056768"
       y2="67.2499999999999"
       id="line1500" />
    <line
       x1="34.7990381056768"
       y1="67.2499999999999"
       x2="34.5606601717799"
       y2="67.5606601717801"
       id="line1502" />
    <line
       x1="34.5606601717799"
       y1="67.5606601717801"
       x2="34.2500000000002"
       y2="67.7990381056767"
       id="line1504" />
    <line
       x1="34.2500000000002"
       y1="67.7990381056767"
       x2="33.8882285676539"
       y2="67.9488887394337"
       id="line1506" />
    <line
       x1="33.8882285676539"
       y1="67.9488887394337"
       x2="33.5"
       y2="68.0000000000001"
       id="line1508" />
    <line
       x1="33.5"
       y1="68.0000000000001"
       x2="33.1117714323464"
       y2="67.9488887394337"
       id="line1510" />
    <line
       x1="33.1117714323464"
       y1="67.9488887394337"
       x2="32.7500000000001"
       y2="67.7990381056765"
       id="line1512" />
    <line
       x1="32.7500000000001"
       y1="67.7990381056765"
       x2="32.4393398282203"
       y2="67.5606601717799"
       id="line1514" />
    <line
       x1="32.4393398282203"
       y1="67.5606601717799"
       x2="32.2009618943234"
       y2="67.2499999999999"
       id="line1516" />
    <line
       x1="32.2009618943234"
       y1="67.2499999999999"
       x2="32.0511112605666"
       y2="66.8882285676536"
       id="line1518" />
    <line
       x1="32.0511112605666"
       y1="66.8882285676536"
       x2="32.0000000000001"
       y2="66.5000000000001"
       id="line1520" />
    <line
       x1="32.0000000000001"
       y1="66.5000000000001"
       x2="32.0511112605666"
       y2="66.1117714323461"
       id="line1522" />
    <line
       x1="32.0511112605666"
       y1="66.1117714323461"
       x2="32.2009618943234"
       y2="65.7499999999999"
       id="line1524" />
    <line
       x1="32.2009618943234"
       y1="65.7499999999999"
       x2="32.4393398282203"
       y2="65.4393398282203"
       id="line1526" />
    <line
       x1="32.4393398282203"
       y1="65.4393398282203"
       x2="32.7500000000001"
       y2="65.2009618943235"
       id="line1528" />
    <line
       x1="32.7500000000001"
       y1="65.2009618943235"
       x2="33.1117714323462"
       y2="65.0511112605665"
       id="line1530" />
    <line
       x1="33.1117714323462"
       y1="65.0511112605665"
       x2="33.5000000000002"
       y2="64.9999999999998"
       id="line1532" />
    <line
       x1="33.5000000000002"
       y1="64.9999999999998"
       x2="33.8882285676538"
       y2="65.0511112605666"
       id="line1534" />
    <line
       x1="33.8882285676538"
       y1="65.0511112605666"
       x2="34.2500000000001"
       y2="65.2009618943233"
       id="line1536" />
    <line
       x1="34.2500000000001"
       y1="65.2009618943233"
       x2="34.5606601717799"
       y2="65.4393398282202"
       id="line1538" />
    <line
       x1="34.5606601717799"
       y1="65.4393398282202"
       x2="34.7990381056769"
       y2="65.7499999999999"
       id="line1540" />
    <line
       x1="106.56066017178"
       y1="65.4393398282205"
       x2="106.799038105677"
       y2="65.7500000000001"
       id="line1542" />
    <line
       x1="106.799038105677"
       y1="65.7500000000001"
       x2="106.948888739434"
       y2="66.1117714323461"
       id="line1544" />
    <line
       x1="106.948888739434"
       y1="66.1117714323461"
       x2="107.0"
       y2="66.4999999999997"
       id="line1546" />
    <line
       x1="107.0"
       y1="66.4999999999997"
       x2="106.948888739434"
       y2="66.8882285676538"
       id="line1548" />
    <line
       x1="106.948888739434"
       y1="66.8882285676538"
       x2="106.799038105677"
       y2="67.2500000000001"
       id="line1550" />
    <line
       x1="106.799038105677"
       y1="67.2500000000001"
       x2="106.56066017178"
       y2="67.5606601717797"
       id="line1552" />
    <line
       x1="106.56066017178"
       y1="67.5606601717797"
       x2="106.25"
       y2="67.7990381056766"
       id="line1554" />
    <line
       x1="106.25"
       y1="67.7990381056766"
       x2="105.888228567654"
       y2="67.9488887394337"
       id="line1556" />
    <line
       x1="105.888228567654"
       y1="67.9488887394337"
       x2="105.5"
       y2="68.0000000000001"
       id="line1558" />
    <line
       x1="105.5"
       y1="68.0000000000001"
       x2="105.111771432346"
       y2="67.9488887394335"
       id="line1560" />
    <line
       x1="105.111771432346"
       y1="67.9488887394335"
       x2="104.75"
       y2="67.7990381056766"
       id="line1562" />
    <line
       x1="104.75"
       y1="67.7990381056766"
       x2="104.43933982822"
       y2="67.5606601717799"
       id="line1564" />
    <line
       x1="104.43933982822"
       y1="67.5606601717799"
       x2="104.200961894323"
       y2="67.2500000000001"
       id="line1566" />
    <line
       x1="104.200961894323"
       y1="67.2500000000001"
       x2="104.051111260567"
       y2="66.888228567654"
       id="line1568" />
    <line
       x1="104.051111260567"
       y1="66.888228567654"
       x2="104.0"
       y2="66.4999999999998"
       id="line1570" />
    <line
       x1="104.0"
       y1="66.4999999999998"
       x2="104.051111260567"
       y2="66.1117714323464"
       id="line1572" />
    <line
       x1="104.051111260567"
       y1="66.1117714323464"
       x2="104.200961894323"
       y2="65.7500000000001"
       id="line1574" />
    <line
       x1="104.200961894323"
       y1="65.7500000000001"
       x2="104.43933982822"
       y2="65.4393398282203"
       id="line1576" />
    <line
       x1="104.43933982822"
       y1="65.4393398282203"
       x2="104.75"
       y2="65.2009618943234"
       id="line1578" />
    <line
       x1="104.75"
       y1="65.2009618943234"
       x2="105.111771432346"
       y2="65.0511112605664"
       id="line1580" />
    <line
       x1="105.111771432346"
       y1="65.0511112605664"
       x2="105.5"
       y2="64.9999999999998"
       id="line1582" />
    <line
       x1="105.5"
       y1="64.9999999999998"
       x2="105.888228567654"
       y2="65.0511112605665"
       id="line1584" />
    <line
       x1="105.888228567654"
       y1="65.0511112605665"
       x2="106.25"
       y2="65.2009618943235"
       id="line1586" />
    <line
       x1="106.25"
       y1="65.2009618943235"
       x2="106.56066017178"
       y2="65.4393398282205"
       id="line1588" />
    <line
       x1="17.1117714323464"
       y1="241.051111260563"
       x2="17.5000000000001"
       y2="240.999999999999"
       id="line1590" />
    <line
       x1="17.5000000000001"
       y1="240.999999999999"
       x2="25.0"
       y2="241.000000000005"
       id="line1592" />
    <line
       x1="25.0"
       y1="241.000000000005"
       x2="25.388228567654"
       y2="241.051111260564"
       id="line1594" />
    <line
       x1="25.388228567654"
       y1="241.051111260564"
       x2="25.7500000000001"
       y2="241.200961894327"
       id="line1596" />
    <line
       x1="25.7500000000001"
       y1="241.200961894327"
       x2="26.0606601717799"
       y2="241.439339828216"
       id="line1598" />
    <line
       x1="26.0606601717799"
       y1="241.439339828216"
       x2="26.2990381056768"
       y2="241.750000000001"
       id="line1600" />
    <line
       x1="26.2990381056768"
       y1="241.750000000001"
       x2="26.4488887394338"
       y2="242.111771432348"
       id="line1602" />
    <line
       x1="26.4488887394338"
       y1="242.111771432348"
       x2="26.5000000000001"
       y2="242.500000000011"
       id="line1604" />
    <line
       x1="26.5000000000001"
       y1="242.500000000011"
       x2="26.4488887394338"
       y2="242.888228567654"
       id="line1606" />
    <line
       x1="26.4488887394338"
       y1="242.888228567654"
       x2="26.2990381056768"
       y2="243.249999999986"
       id="line1608" />
    <line
       x1="26.2990381056768"
       y1="243.249999999986"
       x2="26.0606601717799"
       y2="243.560660171776"
       id="line1610" />
    <line
       x1="26.0606601717799"
       y1="243.560660171776"
       x2="25.7500000000001"
       y2="243.799038105666"
       id="line1612" />
    <line
       x1="25.7500000000001"
       y1="243.799038105666"
       x2="25.388228567654"
       y2="243.948888739427"
       id="line1614" />
    <line
       x1="25.388228567654"
       y1="243.948888739427"
       x2="25.0000000000001"
       y2="244.000000000004"
       id="line1616" />
    <line
       x1="25.0000000000001"
       y1="244.000000000004"
       x2="17.5000000000001"
       y2="243.999999999995"
       id="line1618" />
    <line
       x1="17.5000000000001"
       y1="243.999999999995"
       x2="17.1117714323462"
       y2="243.948888739446"
       id="line1620" />
    <line
       x1="17.1117714323462"
       y1="243.948888739446"
       x2="16.7500000000001"
       y2="243.799038105685"
       id="line1622" />
    <line
       x1="16.7500000000001"
       y1="243.799038105685"
       x2="16.4393398282203"
       y2="243.560660171792"
       id="line1624" />
    <line
       x1="16.4393398282203"
       y1="243.560660171792"
       x2="16.2009618943233"
       y2="243.250000000003"
       id="line1626" />
    <line
       x1="16.2009618943233"
       y1="243.250000000003"
       x2="16.0511112605665"
       y2="242.888228567652"
       id="line1628" />
    <line
       x1="16.0511112605665"
       y1="242.888228567652"
       x2="16.0"
       y2="242.500000000007"
       id="line1630" />
    <line
       x1="16.0"
       y1="242.500000000007"
       x2="16.0511112605665"
       y2="242.11177143234"
       id="line1632" />
    <line
       x1="16.0511112605665"
       y1="242.11177143234"
       x2="16.2009618943235"
       y2="241.749999999989"
       id="line1634" />
    <line
       x1="16.2009618943235"
       y1="241.749999999989"
       x2="16.4393398282203"
       y2="241.43933982823"
       id="line1636" />
    <line
       x1="16.4393398282203"
       y1="241.43933982823"
       x2="16.7500000000001"
       y2="241.200961894325"
       id="line1638" />
    <line
       x1="16.7500000000001"
       y1="241.200961894325"
       x2="17.1117714323464"
       y2="241.051111260563"
       id="line1640" />
    <line
       x1="17.1117714323462"
       y1="46.0511112605666"
       x2="17.5000000000001"
       y2="46.0"
       id="line1642" />
    <line
       x1="17.5000000000001"
       y1="46.0"
       x2="25.0000000000001"
       y2="45.9999999999999"
       id="line1644" />
    <line
       x1="25.0000000000001"
       y1="45.9999999999999"
       x2="25.388228567654"
       y2="46.0511112605663"
       id="line1646" />
    <line
       x1="25.388228567654"
       y1="46.0511112605663"
       x2="25.7500000000001"
       y2="46.2009618943233"
       id="line1648" />
    <line
       x1="25.7500000000001"
       y1="46.2009618943233"
       x2="26.0606601717799"
       y2="46.4393398282201"
       id="line1650" />
    <line
       x1="26.0606601717799"
       y1="46.4393398282201"
       x2="26.2990381056767"
       y2="46.7500000000002"
       id="line1652" />
    <line
       x1="26.2990381056767"
       y1="46.7500000000002"
       x2="26.4488887394338"
       y2="47.1117714323462"
       id="line1654" />
    <line
       x1="26.4488887394338"
       y1="47.1117714323462"
       x2="26.5000000000001"
       y2="47.5000000000002"
       id="line1656" />
    <line
       x1="26.5000000000001"
       y1="47.5000000000002"
       x2="26.4488887394338"
       y2="47.8882285676539"
       id="line1658" />
    <line
       x1="26.4488887394338"
       y1="47.8882285676539"
       x2="26.2990381056768"
       y2="48.2500000000001"
       id="line1660" />
    <line
       x1="26.2990381056768"
       y1="48.2500000000001"
       x2="26.0606601717799"
       y2="48.5606601717799"
       id="line1662" />
    <line
       x1="26.0606601717799"
       y1="48.5606601717799"
       x2="25.75"
       y2="48.7990381056769"
       id="line1664" />
    <line
       x1="25.75"
       y1="48.7990381056769"
       x2="25.388228567654"
       y2="48.9488887394334"
       id="line1666" />
    <line
       x1="25.388228567654"
       y1="48.9488887394334"
       x2="25.0000000000001"
       y2="49.0000000000003"
       id="line1668" />
    <line
       x1="25.0000000000001"
       y1="49.0000000000003"
       x2="17.5000000000002"
       y2="49.0000000000001"
       id="line1670" />
    <line
       x1="17.5000000000002"
       y1="49.0000000000001"
       x2="17.1117714323462"
       y2="48.9488887394338"
       id="line1672" />
    <line
       x1="17.1117714323462"
       y1="48.9488887394338"
       x2="16.7500000000001"
       y2="48.7990381056767"
       id="line1674" />
    <line
       x1="16.7500000000001"
       y1="48.7990381056767"
       x2="16.4393398282203"
       y2="48.5606601717799"
       id="line1676" />
    <line
       x1="16.4393398282203"
       y1="48.5606601717799"
       x2="16.2009618943233"
       y2="48.2500000000003"
       id="line1678" />
    <line
       x1="16.2009618943233"
       y1="48.2500000000003"
       x2="16.0511112605665"
       y2="47.8882285676539"
       id="line1680" />
    <line
       x1="16.0511112605665"
       y1="47.8882285676539"
       x2="16.0000000000002"
       y2="47.5"
       id="line1682" />
    <line
       x1="16.0000000000002"
       y1="47.5"
       x2="16.0511112605666"
       y2="47.1117714323462"
       id="line1684" />
    <line
       x1="16.0511112605666"
       y1="47.1117714323462"
       x2="16.2009618943235"
       y2="46.7499999999998"
       id="line1686" />
    <line
       x1="16.2009618943235"
       y1="46.7499999999998"
       x2="16.4393398282205"
       y2="46.4393398282202"
       id="line1688" />
    <line
       x1="16.4393398282205"
       y1="46.4393398282202"
       x2="16.7500000000001"
       y2="46.2009618943234"
       id="line1690" />
    <line
       x1="16.7500000000001"
       y1="46.2009618943234"
       x2="17.1117714323462"
       y2="46.0511112605666"
       id="line1692" />
    <line
       x1="574.0"
       y1="242.5"
       x2="573.948888739434"
       y2="242.888228567654"
       id="line1694" />
    <line
       x1="573.948888739434"
       y1="242.888228567654"
       x2="573.799038105677"
       y2="243.25"
       id="line1696" />
    <line
       x1="573.799038105677"
       y1="243.25"
       x2="573.56066017178"
       y2="243.56066017178"
       id="line1698" />
    <line
       x1="573.56066017178"
       y1="243.56066017178"
       x2="573.25"
       y2="243.799038105677"
       id="line1700" />
    <line
       x1="573.25"
       y1="243.799038105677"
       x2="572.888228567654"
       y2="243.948888739434"
       id="line1702" />
    <line
       x1="572.888228567654"
       y1="243.948888739434"
       x2="572.5"
       y2="244.0"
       id="line1704" />
    <line
       x1="572.5"
       y1="244.0"
       x2="572.111771432346"
       y2="243.948888739434"
       id="line1706" />
    <line
       x1="572.111771432346"
       y1="243.948888739434"
       x2="571.75"
       y2="243.799038105677"
       id="line1708" />
    <line
       x1="571.75"
       y1="243.799038105677"
       x2="571.43933982822"
       y2="243.56066017178"
       id="line1710" />
    <line
       x1="571.43933982822"
       y1="243.56066017178"
       x2="571.200961894323"
       y2="243.25"
       id="line1712" />
    <line
       x1="571.200961894323"
       y1="243.25"
       x2="571.051111260566"
       y2="242.888228567654"
       id="line1714" />
    <line
       x1="571.051111260566"
       y1="242.888228567654"
       x2="571.0"
       y2="242.5"
       id="line1716" />
    <line
       x1="571.0"
       y1="242.5"
       x2="571.051111260566"
       y2="242.111771432346"
       id="line1718" />
    <line
       x1="571.051111260566"
       y1="242.111771432346"
       x2="571.200961894323"
       y2="241.75"
       id="line1720" />
    <line
       x1="571.200961894323"
       y1="241.75"
       x2="571.43933982822"
       y2="241.43933982822"
       id="line1722" />
    <line
       x1="571.43933982822"
       y1="241.43933982822"
       x2="571.75"
       y2="241.200961894323"
       id="line1724" />
    <line
       x1="571.75"
       y1="241.200961894323"
       x2="572.111771432346"
       y2="241.051111260566"
       id="line1726" />
    <line
       x1="572.111771432346"
       y1="241.051111260566"
       x2="572.5"
       y2="241.0"
       id="line1728" />
    <line
       x1="572.5"
       y1="241.0"
       x2="572.888228567654"
       y2="241.051111260566"
       id="line1730" />
    <line
       x1="572.888228567654"
       y1="241.051111260566"
       x2="573.25"
       y2="241.200961894323"
       id="line1732" />
    <line
       x1="573.25"
       y1="241.200961894323"
       x2="573.56066017178"
       y2="241.43933982822"
       id="line1734" />
    <line
       x1="573.56066017178"
       y1="241.43933982822"
       x2="573.799038105677"
       y2="241.75"
       id="line1736" />
    <line
       x1="573.799038105677"
       y1="241.75"
       x2="573.948888739434"
       y2="242.111771432346"
       id="line1738" />
    <line
       x1="573.948888739434"
       y1="242.111771432346"
       x2="574.0"
       y2="242.5"
       id="line1740" />
    <line
       x1="571.75"
       y1="46.2009618943234"
       x2="572.111771432346"
       y2="46.0511112605664"
       id="line1742" />
    <line
       x1="572.111771432346"
       y1="46.0511112605664"
       x2="572.5"
       y2="46.0"
       id="line1744" />
    <line
       x1="572.5"
       y1="46.0"
       x2="572.888228567654"
       y2="46.0511112605664"
       id="line1746" />
    <line
       x1="572.888228567654"
       y1="46.0511112605664"
       x2="573.25"
       y2="46.2009618943234"
       id="line1748" />
    <line
       x1="573.25"
       y1="46.2009618943234"
       x2="573.56066017178"
       y2="46.4393398282202"
       id="line1750" />
    <line
       x1="573.56066017178"
       y1="46.4393398282202"
       x2="573.799038105677"
       y2="46.75"
       id="line1752" />
    <line
       x1="573.799038105677"
       y1="46.75"
       x2="573.948888739434"
       y2="47.1117714323462"
       id="line1754" />
    <line
       x1="573.948888739434"
       y1="47.1117714323462"
       x2="574.0"
       y2="47.5"
       id="line1756" />
    <line
       x1="574.0"
       y1="47.5"
       x2="573.948888739434"
       y2="47.8882285676538"
       id="line1758" />
    <line
       x1="573.948888739434"
       y1="47.8882285676538"
       x2="573.799038105677"
       y2="48.2500000000001"
       id="line1760" />
    <line
       x1="573.799038105677"
       y1="48.2500000000001"
       x2="573.56066017178"
       y2="48.5606601717799"
       id="line1762" />
    <line
       x1="573.56066017178"
       y1="48.5606601717799"
       x2="573.25"
       y2="48.7990381056767"
       id="line1764" />
    <line
       x1="573.25"
       y1="48.7990381056767"
       x2="572.888228567654"
       y2="48.9488887394336"
       id="line1766" />
    <line
       x1="572.888228567654"
       y1="48.9488887394336"
       x2="572.5"
       y2="49.0000000000001"
       id="line1768" />
    <line
       x1="572.5"
       y1="49.0000000000001"
       x2="572.111771432346"
       y2="48.9488887394336"
       id="line1770" />
    <line
       x1="572.111771432346"
       y1="48.9488887394336"
       x2="571.75"
       y2="48.7990381056767"
       id="line1772" />
    <line
       x1="571.75"
       y1="48.7990381056767"
       x2="571.43933982822"
       y2="48.5606601717799"
       id="line1774" />
    <line
       x1="571.43933982822"
       y1="48.5606601717799"
       x2="571.200961894323"
       y2="48.2500000000001"
       id="line1776" />
    <line
       x1="571.200961894323"
       y1="48.2500000000001"
       x2="571.051111260566"
       y2="47.8882285676538"
       id="line1778" />
    <line
       x1="571.051111260566"
       y1="47.8882285676538"
       x2="571.0"
       y2="47.5"
       id="line1780" />
    <line
       x1="571.0"
       y1="47.5"
       x2="571.051111260566"
       y2="47.1117714323462"
       id="line1782" />
    <line
       x1="571.051111260566"
       y1="47.1117714323462"
       x2="571.200961894323"
       y2="46.75"
       id="line1784" />
    <line
       x1="571.200961894323"
       y1="46.75"
       x2="571.43933982822"
       y2="46.4393398282202"
       id="line1786" />
    <line
       x1="571.43933982822"
       y1="46.4393398282202"
       x2="571.75"
       y2="46.2009618943234"
       id="line1788" />
    <line
       x1="95.4271181034775"
       y1="71.0429048947612"
       x2="95.5027955815463"
       y2="70.9166446504706"
       id="line1790" />
    <line
       x1="95.5027955815463"
       y1="70.9166446504706"
       x2="95.590484319956"
       y2="70.7984100737546"
       id="line1792" />
    <line
       x1="95.590484319956"
       y1="70.7984100737546"
       x2="95.6893398282202"
       y2="70.6893398282204"
       id="line1794" />
    <line
       x1="95.6893398282202"
       y1="70.6893398282204"
       x2="95.7984100737546"
       y2="70.5904843199562"
       id="line1796" />
    <line
       x1="95.7984100737546"
       y1="70.5904843199562"
       x2="95.9166446504707"
       y2="70.5027955815462"
       id="line1798" />
    <line
       x1="95.9166446504707"
       y1="70.5027955815462"
       x2="96.0429048947611"
       y2="70.4271181034774"
       id="line1800" />
    <line
       x1="96.0429048947611"
       y1="70.4271181034774"
       x2="96.1759748514525"
       y2="70.3641807012331"
       id="line1802" />
    <line
       x1="96.1759748514525"
       y1="70.3641807012331"
       x2="96.3145729841184"
       y2="70.3145894964016"
       id="line1804" />
    <line
       x1="96.3145729841184"
       y1="70.3145894964016"
       x2="96.4573645169759"
       y2="70.2788220793952"
       id="line1806" />
    <line
       x1="96.4573645169759"
       y1="70.2788220793952"
       x2="96.6029742895057"
       y2="70.257222909992"
       id="line1808" />
    <line
       x1="96.6029742895057"
       y1="70.257222909992"
       x2="96.7500000000002"
       y2="70.2500000000002"
       id="line1810" />
    <line
       x1="96.7500000000002"
       y1="70.2500000000002"
       x2="96.8970257104943"
       y2="70.2572229099919"
       id="line1812" />
    <line
       x1="96.8970257104943"
       y1="70.2572229099919"
       x2="97.0426354830244"
       y2="70.278822079395"
       id="line1814" />
    <line
       x1="97.0426354830244"
       y1="70.278822079395"
       x2="97.1854270158818"
       y2="70.3145894964017"
       id="line1816" />
    <line
       x1="97.1854270158818"
       y1="70.3145894964017"
       x2="97.3240251485479"
       y2="70.3641807012328"
       id="line1818" />
    <line
       x1="97.3240251485479"
       y1="70.3641807012328"
       x2="97.4570951052391"
       y2="70.4271181034775"
       id="line1820" />
    <line
       x1="97.4570951052391"
       y1="70.4271181034775"
       x2="97.5833553495295"
       y2="70.5027955815462"
       id="line1822" />
    <line
       x1="97.5833553495295"
       y1="70.5027955815462"
       x2="97.7015899262456"
       y2="70.5904843199559"
       id="line1824" />
    <line
       x1="97.7015899262456"
       y1="70.5904843199559"
       x2="97.8106601717799"
       y2="70.6893398282202"
       id="line1826" />
    <line
       x1="97.8106601717799"
       y1="70.6893398282202"
       x2="97.9095156800442"
       y2="70.7984100737545"
       id="line1828" />
    <line
       x1="97.9095156800442"
       y1="70.7984100737545"
       x2="97.9972044184539"
       y2="70.9166446504706"
       id="line1830" />
    <line
       x1="97.9972044184539"
       y1="70.9166446504706"
       x2="98.0728818965226"
       y2="71.042904894761"
       id="line1832" />
    <line
       x1="98.0728818965226"
       y1="71.042904894761"
       x2="98.1358192987669"
       y2="71.1759748514526"
       id="line1834" />
    <line
       x1="98.1358192987669"
       y1="71.1759748514526"
       x2="98.1854105035984"
       y2="71.3145729841184"
       id="line1836" />
    <line
       x1="98.1854105035984"
       y1="71.3145729841184"
       x2="98.2211779206049"
       y2="71.4573645169757"
       id="line1838" />
    <line
       x1="98.2211779206049"
       y1="71.4573645169757"
       x2="98.2427770900084"
       y2="71.6029742895058"
       id="line1840" />
    <line
       x1="98.2427770900084"
       y1="71.6029742895058"
       x2="98.2500000000002"
       y2="71.75"
       id="line1842" />
    <line
       x1="98.2500000000002"
       y1="71.75"
       x2="98.2427770900084"
       y2="71.8970257104942"
       id="line1844" />
    <line
       x1="98.2427770900084"
       y1="71.8970257104942"
       x2="98.221177920605"
       y2="72.042635483024"
       id="line1846" />
    <line
       x1="98.221177920605"
       y1="72.042635483024"
       x2="98.1854105035984"
       y2="72.1854270158818"
       id="line1848" />
    <line
       x1="98.1854105035984"
       y1="72.1854270158818"
       x2="98.135819298767"
       y2="72.3240251485477"
       id="line1850" />
    <line
       x1="98.135819298767"
       y1="72.3240251485477"
       x2="98.0728818965226"
       y2="72.4570951052391"
       id="line1852" />
    <line
       x1="98.0728818965226"
       y1="72.4570951052391"
       x2="97.9972044184539"
       y2="72.5833553495295"
       id="line1854" />
    <line
       x1="97.9972044184539"
       y1="72.5833553495295"
       x2="97.9095156800441"
       y2="72.7015899262458"
       id="line1856" />
    <line
       x1="97.9095156800441"
       y1="72.7015899262458"
       x2="97.8106601717801"
       y2="72.8106601717798"
       id="line1858" />
    <line
       x1="97.8106601717801"
       y1="72.8106601717798"
       x2="97.7015899262456"
       y2="72.909515680044"
       id="line1860" />
    <line
       x1="97.7015899262456"
       y1="72.909515680044"
       x2="97.5833553495295"
       y2="72.9972044184537"
       id="line1862" />
    <line
       x1="97.5833553495295"
       y1="72.9972044184537"
       x2="97.4570951052391"
       y2="73.0728818965224"
       id="line1864" />
    <line
       x1="97.4570951052391"
       y1="73.0728818965224"
       x2="97.3240251485478"
       y2="73.1358192987671"
       id="line1866" />
    <line
       x1="97.3240251485478"
       y1="73.1358192987671"
       x2="97.1854270158818"
       y2="73.1854105035982"
       id="line1868" />
    <line
       x1="97.1854270158818"
       y1="73.1854105035982"
       x2="97.0426354830244"
       y2="73.2211779206046"
       id="line1870" />
    <line
       x1="97.0426354830244"
       y1="73.2211779206046"
       x2="96.8970257104945"
       y2="73.2427770900082"
       id="line1872" />
    <line
       x1="96.8970257104945"
       y1="73.2427770900082"
       x2="96.7500000000002"
       y2="73.2500000000001"
       id="line1874" />
    <line
       x1="96.7500000000002"
       y1="73.2500000000001"
       x2="96.6029742895058"
       y2="73.2427770900085"
       id="line1876" />
    <line
       x1="96.6029742895058"
       y1="73.2427770900085"
       x2="96.4573645169759"
       y2="73.2211779206048"
       id="line1878" />
    <line
       x1="96.4573645169759"
       y1="73.2211779206048"
       x2="96.3145729841184"
       y2="73.1854105035981"
       id="line1880" />
    <line
       x1="96.3145729841184"
       y1="73.1854105035981"
       x2="96.1759748514525"
       y2="73.135819298767"
       id="line1882" />
    <line
       x1="96.1759748514525"
       y1="73.135819298767"
       x2="96.0429048947611"
       y2="73.0728818965225"
       id="line1884" />
    <line
       x1="96.0429048947611"
       y1="73.0728818965225"
       x2="95.9166446504707"
       y2="72.9972044184539"
       id="line1886" />
    <line
       x1="95.9166446504707"
       y1="72.9972044184539"
       x2="95.7984100737546"
       y2="72.9095156800443"
       id="line1888" />
    <line
       x1="95.7984100737546"
       y1="72.9095156800443"
       x2="95.6893398282203"
       y2="72.8106601717797"
       id="line1890" />
    <line
       x1="95.6893398282203"
       y1="72.8106601717797"
       x2="95.590484319956"
       y2="72.7015899262454"
       id="line1892" />
    <line
       x1="95.590484319956"
       y1="72.7015899262454"
       x2="95.5027955815463"
       y2="72.5833553495293"
       id="line1894" />
    <line
       x1="95.5027955815463"
       y1="72.5833553495293"
       x2="95.4271181034775"
       y2="72.4570951052389"
       id="line1896" />
    <line
       x1="95.4271181034775"
       y1="72.4570951052389"
       x2="95.3641807012332"
       y2="72.3240251485477"
       id="line1898" />
    <line
       x1="95.3641807012332"
       y1="72.3240251485477"
       x2="95.3145894964017"
       y2="72.1854270158819"
       id="line1900" />
    <line
       x1="95.3145894964017"
       y1="72.1854270158819"
       x2="95.2788220793952"
       y2="72.0426354830241"
       id="line1902" />
    <line
       x1="95.2788220793952"
       y1="72.0426354830241"
       x2="95.2572229099918"
       y2="71.8970257104943"
       id="line1904" />
    <line
       x1="95.2572229099918"
       y1="71.8970257104943"
       x2="95.2500000000001"
       y2="71.7500000000002"
       id="line1906" />
    <line
       x1="95.2500000000001"
       y1="71.7500000000002"
       x2="95.2572229099918"
       y2="71.6029742895058"
       id="line1908" />
    <line
       x1="95.2572229099918"
       y1="71.6029742895058"
       x2="95.2788220793952"
       y2="71.4573645169759"
       id="line1910" />
    <line
       x1="95.2788220793952"
       y1="71.4573645169759"
       x2="95.3145894964018"
       y2="71.3145729841182"
       id="line1912" />
    <line
       x1="95.3145894964018"
       y1="71.3145729841182"
       x2="95.3641807012332"
       y2="71.1759748514523"
       id="line1914" />
    <line
       x1="95.3641807012332"
       y1="71.1759748514523"
       x2="95.4271181034775"
       y2="71.0429048947612"
       id="line1916" />
    <line
       x1="244.31066017178"
       y1="72.81066017178"
       x2="244.201589926246"
       y2="72.9095156800443"
       id="line1918" />
    <line
       x1="244.201589926246"
       y1="72.9095156800443"
       x2="244.083355349529"
       y2="72.9972044184539"
       id="line1920" />
    <line
       x1="244.083355349529"
       y1="72.9972044184539"
       x2="243.957095105239"
       y2="73.0728818965225"
       id="line1922" />
    <line
       x1="243.957095105239"
       y1="73.0728818965225"
       x2="243.824025148548"
       y2="73.1358192987668"
       id="line1924" />
    <line
       x1="243.824025148548"
       y1="73.1358192987668"
       x2="243.685427015882"
       y2="73.1854105035984"
       id="line1926" />
    <line
       x1="243.685427015882"
       y1="73.1854105035984"
       x2="243.542635483024"
       y2="73.2211779206049"
       id="line1928" />
    <line
       x1="243.542635483024"
       y1="73.2211779206049"
       x2="243.397025710494"
       y2="73.2427770900082"
       id="line1930" />
    <line
       x1="243.397025710494"
       y1="73.2427770900082"
       x2="243.25"
       y2="73.25"
       id="line1932" />
    <line
       x1="243.25"
       y1="73.25"
       x2="243.102974289506"
       y2="73.2427770900082"
       id="line1934" />
    <line
       x1="243.102974289506"
       y1="73.2427770900082"
       x2="242.957364516976"
       y2="73.2211779206048"
       id="line1936" />
    <line
       x1="242.957364516976"
       y1="73.2211779206048"
       x2="242.814572984118"
       y2="73.1854105035982"
       id="line1938" />
    <line
       x1="242.814572984118"
       y1="73.1854105035982"
       x2="242.675974851452"
       y2="73.1358192987669"
       id="line1940" />
    <line
       x1="242.675974851452"
       y1="73.1358192987669"
       x2="242.542904894761"
       y2="73.0728818965225"
       id="line1942" />
    <line
       x1="242.542904894761"
       y1="73.0728818965225"
       x2="242.416644650471"
       y2="72.9972044184539"
       id="line1944" />
    <line
       x1="242.416644650471"
       y1="72.9972044184539"
       x2="242.298410073755"
       y2="72.909515680044"
       id="line1946" />
    <line
       x1="242.298410073755"
       y1="72.909515680044"
       x2="242.18933982822"
       y2="72.8106601717798"
       id="line1948" />
    <line
       x1="242.18933982822"
       y1="72.8106601717798"
       x2="242.090484319956"
       y2="72.7015899262456"
       id="line1950" />
    <line
       x1="242.090484319956"
       y1="72.7015899262456"
       x2="242.002795581546"
       y2="72.5833553495294"
       id="line1952" />
    <line
       x1="242.002795581546"
       y1="72.5833553495294"
       x2="241.927118103478"
       y2="72.4570951052389"
       id="line1954" />
    <line
       x1="241.927118103478"
       y1="72.4570951052389"
       x2="241.864180701233"
       y2="72.3240251485477"
       id="line1956" />
    <line
       x1="241.864180701233"
       y1="72.3240251485477"
       x2="241.814589496402"
       y2="72.1854270158816"
       id="line1958" />
    <line
       x1="241.814589496402"
       y1="72.1854270158816"
       x2="241.778822079395"
       y2="72.0426354830244"
       id="line1960" />
    <line
       x1="241.778822079395"
       y1="72.0426354830244"
       x2="241.757222909992"
       y2="71.8970257104944"
       id="line1962" />
    <line
       x1="241.757222909992"
       y1="71.8970257104944"
       x2="241.75"
       y2="71.7500000000001"
       id="line1964" />
    <line
       x1="241.75"
       y1="71.7500000000001"
       x2="241.757222909992"
       y2="71.6029742895055"
       id="line1966" />
    <line
       x1="241.757222909992"
       y1="71.6029742895055"
       x2="241.778822079395"
       y2="71.4573645169757"
       id="line1968" />
    <line
       x1="241.778822079395"
       y1="71.4573645169757"
       x2="241.814589496402"
       y2="71.3145729841183"
       id="line1970" />
    <line
       x1="241.814589496402"
       y1="71.3145729841183"
       x2="241.864180701233"
       y2="71.1759748514524"
       id="line1972" />
    <line
       x1="241.864180701233"
       y1="71.1759748514524"
       x2="241.927118103478"
       y2="71.0429048947609"
       id="line1974" />
    <line
       x1="241.927118103478"
       y1="71.0429048947609"
       x2="242.002795581546"
       y2="70.9166446504706"
       id="line1976" />
    <line
       x1="242.002795581546"
       y1="70.9166446504706"
       x2="242.090484319956"
       y2="70.7984100737546"
       id="line1978" />
    <line
       x1="242.090484319956"
       y1="70.7984100737546"
       x2="242.18933982822"
       y2="70.6893398282201"
       id="line1980" />
    <line
       x1="242.18933982822"
       y1="70.6893398282201"
       x2="242.298410073755"
       y2="70.5904843199559"
       id="line1982" />
    <line
       x1="242.298410073755"
       y1="70.5904843199559"
       x2="242.416644650471"
       y2="70.5027955815462"
       id="line1984" />
    <line
       x1="242.416644650471"
       y1="70.5027955815462"
       x2="242.542904894761"
       y2="70.4271181034775"
       id="line1986" />
    <line
       x1="242.542904894761"
       y1="70.4271181034775"
       x2="242.675974851452"
       y2="70.3641807012331"
       id="line1988" />
    <line
       x1="242.675974851452"
       y1="70.3641807012331"
       x2="242.814572984118"
       y2="70.3145894964019"
       id="line1990" />
    <line
       x1="242.814572984118"
       y1="70.3145894964019"
       x2="242.957364516976"
       y2="70.2788220793952"
       id="line1992" />
    <line
       x1="242.957364516976"
       y1="70.2788220793952"
       x2="243.102974289506"
       y2="70.2572229099916"
       id="line1994" />
    <line
       x1="243.102974289506"
       y1="70.2572229099916"
       x2="243.25"
       y2="70.2499999999999"
       id="line1996" />
    <line
       x1="243.25"
       y1="70.2499999999999"
       x2="243.397025710494"
       y2="70.2572229099918"
       id="line1998" />
    <line
       x1="243.397025710494"
       y1="70.2572229099918"
       x2="243.542635483024"
       y2="70.2788220793951"
       id="line2000" />
    <line
       x1="243.542635483024"
       y1="70.2788220793951"
       x2="243.685427015882"
       y2="70.3145894964017"
       id="line2002" />
    <line
       x1="243.685427015882"
       y1="70.3145894964017"
       x2="243.824025148548"
       y2="70.364180701233"
       id="line2004" />
    <line
       x1="243.824025148548"
       y1="70.364180701233"
       x2="243.957095105239"
       y2="70.4271181034775"
       id="line2006" />
    <line
       x1="243.957095105239"
       y1="70.4271181034775"
       x2="244.083355349529"
       y2="70.5027955815462"
       id="line2008" />
    <line
       x1="244.083355349529"
       y1="70.5027955815462"
       x2="244.201589926246"
       y2="70.5904843199561"
       id="line2010" />
    <line
       x1="244.201589926246"
       y1="70.5904843199561"
       x2="244.31066017178"
       y2="70.6893398282202"
       id="line2012" />
    <line
       x1="244.31066017178"
       y1="70.6893398282202"
       x2="244.409515680044"
       y2="70.7984100737545"
       id="line2014" />
    <line
       x1="244.409515680044"
       y1="70.7984100737545"
       x2="244.497204418454"
       y2="70.9166446504706"
       id="line2016" />
    <line
       x1="244.497204418454"
       y1="70.9166446504706"
       x2="244.572881896523"
       y2="71.0429048947609"
       id="line2018" />
    <line
       x1="244.572881896523"
       y1="71.0429048947609"
       x2="244.635819298767"
       y2="71.1759748514524"
       id="line2020" />
    <line
       x1="244.635819298767"
       y1="71.1759748514524"
       x2="244.685410503598"
       y2="71.3145729841185"
       id="line2022" />
    <line
       x1="244.685410503598"
       y1="71.3145729841185"
       x2="244.721177920605"
       y2="71.4573645169757"
       id="line2024" />
    <line
       x1="244.721177920605"
       y1="71.4573645169757"
       x2="244.742777090008"
       y2="71.6029742895056"
       id="line2026" />
    <line
       x1="244.742777090008"
       y1="71.6029742895056"
       x2="244.75"
       y2="71.7499999999999"
       id="line2028" />
    <line
       x1="244.75"
       y1="71.7499999999999"
       x2="244.742777090008"
       y2="71.8970257104944"
       id="line2030" />
    <line
       x1="244.742777090008"
       y1="71.8970257104944"
       x2="244.721177920605"
       y2="72.0426354830242"
       id="line2032" />
    <line
       x1="244.721177920605"
       y1="72.0426354830242"
       x2="244.685410503598"
       y2="72.1854270158818"
       id="line2034" />
    <line
       x1="244.685410503598"
       y1="72.1854270158818"
       x2="244.635819298767"
       y2="72.3240251485475"
       id="line2036" />
    <line
       x1="244.635819298767"
       y1="72.3240251485475"
       x2="244.572881896523"
       y2="72.4570951052389"
       id="line2038" />
    <line
       x1="244.572881896523"
       y1="72.4570951052389"
       x2="244.497204418454"
       y2="72.5833553495294"
       id="line2040" />
    <line
       x1="244.497204418454"
       y1="72.5833553495294"
       x2="244.409515680044"
       y2="72.7015899262455"
       id="line2042" />
    <line
       x1="244.409515680044"
       y1="72.7015899262455"
       x2="244.31066017178"
       y2="72.81066017178"
       id="line2044" />
    <line
       x1="242.298410073755"
       y1="217.090484319956"
       x2="242.416644650471"
       y2="217.002795581546"
       id="line2046" />
    <line
       x1="242.416644650471"
       y1="217.002795581546"
       x2="242.542904894761"
       y2="216.927118103477"
       id="line2048" />
    <line
       x1="242.542904894761"
       y1="216.927118103477"
       x2="242.675974851452"
       y2="216.864180701233"
       id="line2050" />
    <line
       x1="242.675974851452"
       y1="216.864180701233"
       x2="242.814572984118"
       y2="216.814589496402"
       id="line2052" />
    <line
       x1="242.814572984118"
       y1="216.814589496402"
       x2="242.957364516976"
       y2="216.778822079396"
       id="line2054" />
    <line
       x1="242.957364516976"
       y1="216.778822079396"
       x2="243.102974289506"
       y2="216.757222909992"
       id="line2056" />
    <line
       x1="243.102974289506"
       y1="216.757222909992"
       x2="243.25"
       y2="216.75"
       id="line2058" />
    <line
       x1="243.25"
       y1="216.75"
       x2="243.397025710494"
       y2="216.757222909992"
       id="line2060" />
    <line
       x1="243.397025710494"
       y1="216.757222909992"
       x2="243.542635483024"
       y2="216.778822079395"
       id="line2062" />
    <line
       x1="243.542635483024"
       y1="216.778822079395"
       x2="243.685427015882"
       y2="216.814589496401"
       id="line2064" />
    <line
       x1="243.685427015882"
       y1="216.814589496401"
       x2="243.824025148548"
       y2="216.864180701233"
       id="line2066" />
    <line
       x1="243.824025148548"
       y1="216.864180701233"
       x2="243.957095105239"
       y2="216.927118103478"
       id="line2068" />
    <line
       x1="243.957095105239"
       y1="216.927118103478"
       x2="244.083355349529"
       y2="217.002795581546"
       id="line2070" />
    <line
       x1="244.083355349529"
       y1="217.002795581546"
       x2="244.201589926246"
       y2="217.090484319956"
       id="line2072" />
    <line
       x1="244.201589926246"
       y1="217.090484319956"
       x2="244.31066017178"
       y2="217.189339828221"
       id="line2074" />
    <line
       x1="244.31066017178"
       y1="217.189339828221"
       x2="244.409515680044"
       y2="217.298410073755"
       id="line2076" />
    <line
       x1="244.409515680044"
       y1="217.298410073755"
       x2="244.497204418454"
       y2="217.41664465047"
       id="line2078" />
    <line
       x1="244.497204418454"
       y1="217.41664465047"
       x2="244.572881896523"
       y2="217.542904894761"
       id="line2080" />
    <line
       x1="244.572881896523"
       y1="217.542904894761"
       x2="244.635819298767"
       y2="217.675974851452"
       id="line2082" />
    <line
       x1="244.635819298767"
       y1="217.675974851452"
       x2="244.685410503598"
       y2="217.814572984118"
       id="line2084" />
    <line
       x1="244.685410503598"
       y1="217.814572984118"
       x2="244.721177920605"
       y2="217.957364516976"
       id="line2086" />
    <line
       x1="244.721177920605"
       y1="217.957364516976"
       x2="244.742777090008"
       y2="218.102974289506"
       id="line2088" />
    <line
       x1="244.742777090008"
       y1="218.102974289506"
       x2="244.75"
       y2="218.25"
       id="line2090" />
    <line
       x1="244.75"
       y1="218.25"
       x2="244.742777090008"
       y2="218.397025710494"
       id="line2092" />
    <line
       x1="244.742777090008"
       y1="218.397025710494"
       x2="244.721177920605"
       y2="218.542635483025"
       id="line2094" />
    <line
       x1="244.721177920605"
       y1="218.542635483025"
       x2="244.685410503598"
       y2="218.685427015882"
       id="line2096" />
    <line
       x1="244.685410503598"
       y1="218.685427015882"
       x2="244.635819298767"
       y2="218.824025148548"
       id="line2098" />
    <line
       x1="244.635819298767"
       y1="218.824025148548"
       x2="244.572881896523"
       y2="218.957095105239"
       id="line2100" />
    <line
       x1="244.572881896523"
       y1="218.957095105239"
       x2="244.497204418454"
       y2="219.083355349529"
       id="line2102" />
    <line
       x1="244.497204418454"
       y1="219.083355349529"
       x2="244.409515680044"
       y2="219.201589926245"
       id="line2104" />
    <line
       x1="244.409515680044"
       y1="219.201589926245"
       x2="244.31066017178"
       y2="219.31066017178"
       id="line2106" />
    <line
       x1="244.31066017178"
       y1="219.31066017178"
       x2="244.201589926246"
       y2="219.409515680045"
       id="line2108" />
    <line
       x1="244.201589926246"
       y1="219.409515680045"
       x2="244.083355349529"
       y2="219.497204418454"
       id="line2110" />
    <line
       x1="244.083355349529"
       y1="219.497204418454"
       x2="243.957095105239"
       y2="219.572881896522"
       id="line2112" />
    <line
       x1="243.957095105239"
       y1="219.572881896522"
       x2="243.824025148548"
       y2="219.635819298767"
       id="line2114" />
    <line
       x1="243.824025148548"
       y1="219.635819298767"
       x2="243.685427015882"
       y2="219.685410503598"
       id="line2116" />
    <line
       x1="243.685427015882"
       y1="219.685410503598"
       x2="243.542635483024"
       y2="219.721177920605"
       id="line2118" />
    <line
       x1="243.542635483024"
       y1="219.721177920605"
       x2="243.397025710494"
       y2="219.742777090008"
       id="line2120" />
    <line
       x1="243.397025710494"
       y1="219.742777090008"
       x2="243.25"
       y2="219.75"
       id="line2122" />
    <line
       x1="243.25"
       y1="219.75"
       x2="243.102974289506"
       y2="219.742777090009"
       id="line2124" />
    <line
       x1="243.102974289506"
       y1="219.742777090009"
       x2="242.957364516976"
       y2="219.721177920605"
       id="line2126" />
    <line
       x1="242.957364516976"
       y1="219.721177920605"
       x2="242.814572984118"
       y2="219.685410503598"
       id="line2128" />
    <line
       x1="242.814572984118"
       y1="219.685410503598"
       x2="242.675974851452"
       y2="219.635819298767"
       id="line2130" />
    <line
       x1="242.675974851452"
       y1="219.635819298767"
       x2="242.542904894761"
       y2="219.572881896523"
       id="line2132" />
    <line
       x1="242.542904894761"
       y1="219.572881896523"
       x2="242.416644650471"
       y2="219.497204418454"
       id="line2134" />
    <line
       x1="242.416644650471"
       y1="219.497204418454"
       x2="242.298410073755"
       y2="219.409515680044"
       id="line2136" />
    <line
       x1="242.298410073755"
       y1="219.409515680044"
       x2="242.18933982822"
       y2="219.31066017178"
       id="line2138" />
    <line
       x1="242.18933982822"
       y1="219.31066017178"
       x2="242.090484319956"
       y2="219.201589926246"
       id="line2140" />
    <line
       x1="242.090484319956"
       y1="219.201589926246"
       x2="242.002795581546"
       y2="219.083355349529"
       id="line2142" />
    <line
       x1="242.002795581546"
       y1="219.083355349529"
       x2="241.927118103478"
       y2="218.957095105238"
       id="line2144" />
    <line
       x1="241.927118103478"
       y1="218.957095105238"
       x2="241.864180701233"
       y2="218.824025148547"
       id="line2146" />
    <line
       x1="241.864180701233"
       y1="218.824025148547"
       x2="241.814589496402"
       y2="218.685427015881"
       id="line2148" />
    <line
       x1="241.814589496402"
       y1="218.685427015881"
       x2="241.778822079395"
       y2="218.542635483024"
       id="line2150" />
    <line
       x1="241.778822079395"
       y1="218.542635483024"
       x2="241.757222909992"
       y2="218.397025710495"
       id="line2152" />
    <line
       x1="241.757222909992"
       y1="218.397025710495"
       x2="241.75"
       y2="218.25"
       id="line2154" />
    <line
       x1="241.75"
       y1="218.25"
       x2="241.757222909992"
       y2="218.102974289506"
       id="line2156" />
    <line
       x1="241.757222909992"
       y1="218.102974289506"
       x2="241.778822079395"
       y2="217.957364516976"
       id="line2158" />
    <line
       x1="241.778822079395"
       y1="217.957364516976"
       x2="241.814589496402"
       y2="217.814572984118"
       id="line2160" />
    <line
       x1="241.814589496402"
       y1="217.814572984118"
       x2="241.864180701233"
       y2="217.675974851453"
       id="line2162" />
    <line
       x1="241.864180701233"
       y1="217.675974851453"
       x2="241.927118103478"
       y2="217.542904894761"
       id="line2164" />
    <line
       x1="241.927118103478"
       y1="217.542904894761"
       x2="242.002795581546"
       y2="217.416644650471"
       id="line2166" />
    <line
       x1="242.002795581546"
       y1="217.416644650471"
       x2="242.090484319956"
       y2="217.298410073755"
       id="line2168" />
    <line
       x1="242.090484319956"
       y1="217.298410073755"
       x2="242.18933982822"
       y2="217.18933982822"
       id="line2170" />
    <line
       x1="242.18933982822"
       y1="217.18933982822"
       x2="242.298410073755"
       y2="217.090484319956"
       id="line2172" />
    <line
       x1="96.1759748514525"
       y1="219.635819298767"
       x2="96.0429048947611"
       y2="219.572881896523"
       id="line2174" />
    <line
       x1="96.0429048947611"
       y1="219.572881896523"
       x2="95.9166446504708"
       y2="219.497204418453"
       id="line2176" />
    <line
       x1="95.9166446504708"
       y1="219.497204418453"
       x2="95.7984100737547"
       y2="219.409515680045"
       id="line2178" />
    <line
       x1="95.7984100737547"
       y1="219.409515680045"
       x2="95.6893398282203"
       y2="219.310660171779"
       id="line2180" />
    <line
       x1="95.6893398282203"
       y1="219.310660171779"
       x2="95.590484319956"
       y2="219.201589926246"
       id="line2182" />
    <line
       x1="95.590484319956"
       y1="219.201589926246"
       x2="95.5027955815463"
       y2="219.083355349529"
       id="line2184" />
    <line
       x1="95.5027955815463"
       y1="219.083355349529"
       x2="95.4271181034775"
       y2="218.957095105238"
       id="line2186" />
    <line
       x1="95.4271181034775"
       y1="218.957095105238"
       x2="95.3641807012332"
       y2="218.824025148547"
       id="line2188" />
    <line
       x1="95.3641807012332"
       y1="218.824025148547"
       x2="95.3145894964018"
       y2="218.685427015881"
       id="line2190" />
    <line
       x1="95.3145894964018"
       y1="218.685427015881"
       x2="95.2788220793952"
       y2="218.542635483024"
       id="line2192" />
    <line
       x1="95.2788220793952"
       y1="218.542635483024"
       x2="95.2572229099918"
       y2="218.397025710495"
       id="line2194" />
    <line
       x1="95.2572229099918"
       y1="218.397025710495"
       x2="95.2500000000001"
       y2="218.250000000001"
       id="line2196" />
    <line
       x1="95.2500000000001"
       y1="218.250000000001"
       x2="95.2572229099918"
       y2="218.102974289506"
       id="line2198" />
    <line
       x1="95.2572229099918"
       y1="218.102974289506"
       x2="95.2788220793952"
       y2="217.957364516975"
       id="line2200" />
    <line
       x1="95.2788220793952"
       y1="217.957364516975"
       x2="95.3145894964019"
       y2="217.814572984117"
       id="line2202" />
    <line
       x1="95.3145894964019"
       y1="217.814572984117"
       x2="95.3641807012332"
       y2="217.675974851452"
       id="line2204" />
    <line
       x1="95.3641807012332"
       y1="217.675974851452"
       x2="95.4271181034775"
       y2="217.542904894761"
       id="line2206" />
    <line
       x1="95.4271181034775"
       y1="217.542904894761"
       x2="95.5027955815463"
       y2="217.416644650471"
       id="line2208" />
    <line
       x1="95.5027955815463"
       y1="217.416644650471"
       x2="95.590484319956"
       y2="217.298410073755"
       id="line2210" />
    <line
       x1="95.590484319956"
       y1="217.298410073755"
       x2="95.6893398282203"
       y2="217.18933982822"
       id="line2212" />
    <line
       x1="95.6893398282203"
       y1="217.18933982822"
       x2="95.7984100737547"
       y2="217.090484319956"
       id="line2214" />
    <line
       x1="95.7984100737547"
       y1="217.090484319956"
       x2="95.9166446504707"
       y2="217.002795581546"
       id="line2216" />
    <line
       x1="95.9166446504707"
       y1="217.002795581546"
       x2="96.0429048947611"
       y2="216.927118103478"
       id="line2218" />
    <line
       x1="96.0429048947611"
       y1="216.927118103478"
       x2="96.1759748514525"
       y2="216.864180701233"
       id="line2220" />
    <line
       x1="96.1759748514525"
       y1="216.864180701233"
       x2="96.3145729841184"
       y2="216.814589496401"
       id="line2222" />
    <line
       x1="96.3145729841184"
       y1="216.814589496401"
       x2="96.4573645169759"
       y2="216.778822079396"
       id="line2224" />
    <line
       x1="96.4573645169759"
       y1="216.778822079396"
       x2="96.6029742895058"
       y2="216.757222909992"
       id="line2226" />
    <line
       x1="96.6029742895058"
       y1="216.757222909992"
       x2="96.7500000000001"
       y2="216.75"
       id="line2228" />
    <line
       x1="96.7500000000001"
       y1="216.75"
       x2="96.8970257104945"
       y2="216.757222909992"
       id="line2230" />
    <line
       x1="96.8970257104945"
       y1="216.757222909992"
       x2="97.0426354830244"
       y2="216.778822079395"
       id="line2232" />
    <line
       x1="97.0426354830244"
       y1="216.778822079395"
       x2="97.1854270158818"
       y2="216.814589496402"
       id="line2234" />
    <line
       x1="97.1854270158818"
       y1="216.814589496402"
       x2="97.3240251485477"
       y2="216.864180701234"
       id="line2236" />
    <line
       x1="97.3240251485477"
       y1="216.864180701234"
       x2="97.457095105239"
       y2="216.927118103478"
       id="line2238" />
    <line
       x1="97.457095105239"
       y1="216.927118103478"
       x2="97.5833553495295"
       y2="217.002795581546"
       id="line2240" />
    <line
       x1="97.5833553495295"
       y1="217.002795581546"
       x2="97.7015899262456"
       y2="217.090484319956"
       id="line2242" />
    <line
       x1="97.7015899262456"
       y1="217.090484319956"
       x2="97.8106601717799"
       y2="217.18933982822"
       id="line2244" />
    <line
       x1="97.8106601717799"
       y1="217.18933982822"
       x2="97.9095156800442"
       y2="217.298410073754"
       id="line2246" />
    <line
       x1="97.9095156800442"
       y1="217.298410073754"
       x2="97.9972044184539"
       y2="217.416644650472"
       id="line2248" />
    <line
       x1="97.9972044184539"
       y1="217.416644650472"
       x2="98.0728818965226"
       y2="217.54290489476"
       id="line2250" />
    <line
       x1="98.0728818965226"
       y1="217.54290489476"
       x2="98.135819298767"
       y2="217.675974851452"
       id="line2252" />
    <line
       x1="98.135819298767"
       y1="217.675974851452"
       x2="98.1854105035984"
       y2="217.81457298412"
       id="line2254" />
    <line
       x1="98.1854105035984"
       y1="217.81457298412"
       x2="98.2211779206049"
       y2="217.957364516975"
       id="line2256" />
    <line
       x1="98.2211779206049"
       y1="217.957364516975"
       x2="98.2427770900083"
       y2="218.102974289507"
       id="line2258" />
    <line
       x1="98.2427770900083"
       y1="218.102974289507"
       x2="98.2500000000001"
       y2="218.250000000001"
       id="line2260" />
    <line
       x1="98.2500000000001"
       y1="218.250000000001"
       x2="98.2427770900084"
       y2="218.397025710495"
       id="line2262" />
    <line
       x1="98.2427770900084"
       y1="218.397025710495"
       x2="98.2211779206049"
       y2="218.542635483024"
       id="line2264" />
    <line
       x1="98.2211779206049"
       y1="218.542635483024"
       x2="98.1854105035984"
       y2="218.685427015882"
       id="line2266" />
    <line
       x1="98.1854105035984"
       y1="218.685427015882"
       x2="98.135819298767"
       y2="218.824025148548"
       id="line2268" />
    <line
       x1="98.135819298767"
       y1="218.824025148548"
       x2="98.0728818965226"
       y2="218.957095105239"
       id="line2270" />
    <line
       x1="98.0728818965226"
       y1="218.957095105239"
       x2="97.9972044184539"
       y2="219.083355349529"
       id="line2272" />
    <line
       x1="97.9972044184539"
       y1="219.083355349529"
       x2="97.9095156800442"
       y2="219.201589926244"
       id="line2274" />
    <line
       x1="97.9095156800442"
       y1="219.201589926244"
       x2="97.8106601717799"
       y2="219.31066017178"
       id="line2276" />
    <line
       x1="97.8106601717799"
       y1="219.31066017178"
       x2="97.7015899262456"
       y2="219.409515680044"
       id="line2278" />
    <line
       x1="97.7015899262456"
       y1="219.409515680044"
       x2="97.5833553495295"
       y2="219.497204418454"
       id="line2280" />
    <line
       x1="97.5833553495295"
       y1="219.497204418454"
       x2="97.457095105239"
       y2="219.572881896523"
       id="line2282" />
    <line
       x1="97.457095105239"
       y1="219.572881896523"
       x2="97.3240251485478"
       y2="219.635819298767"
       id="line2284" />
    <line
       x1="97.3240251485478"
       y1="219.635819298767"
       x2="97.1854270158818"
       y2="219.685410503598"
       id="line2286" />
    <line
       x1="97.1854270158818"
       y1="219.685410503598"
       x2="97.0426354830244"
       y2="219.721177920606"
       id="line2288" />
    <line
       x1="97.0426354830244"
       y1="219.721177920606"
       x2="96.8970257104945"
       y2="219.742777090008"
       id="line2290" />
    <line
       x1="96.8970257104945"
       y1="219.742777090008"
       x2="96.7500000000002"
       y2="219.75"
       id="line2292" />
    <line
       x1="96.7500000000002"
       y1="219.75"
       x2="96.6029742895058"
       y2="219.742777090008"
       id="line2294" />
    <line
       x1="96.6029742895058"
       y1="219.742777090008"
       x2="96.4573645169759"
       y2="219.721177920605"
       id="line2296" />
    <line
       x1="96.4573645169759"
       y1="219.721177920605"
       x2="96.3145729841184"
       y2="219.685410503598"
       id="line2298" />
    <line
       x1="96.3145729841184"
       y1="219.685410503598"
       x2="96.1759748514525"
       y2="219.635819298767"
       id="line2300" />
    <line
       x1="253.782520113094"
       y1="189.78268999847"
       x2="248.989613168742"
       y2="197.779172136862"
       id="line2302" />
    <line
       x1="248.989613168742"
       y1="197.779172136862"
       x2="243.43599306946"
       y2="205.267361995547"
       id="line2304" />
    <line
       x1="243.43599306946"
       y1="205.267361995547"
       x2="237.175144212722"
       y2="212.175144212722"
       id="line2306" />
    <line
       x1="237.175144212722"
       y1="212.175144212722"
       x2="230.267361995546"
       y2="218.435993069461"
       id="line2308" />
    <line
       x1="230.267361995546"
       y1="218.435993069461"
       x2="222.779172136862"
       y2="223.989613168741"
       id="line2310" />
    <line
       x1="222.779172136862"
       y1="223.989613168741"
       x2="214.78268999847"
       y2="228.782520113095"
       id="line2312" />
    <line
       x1="214.78268999847"
       y1="228.782520113095"
       x2="206.354926074684"
       y2="232.768555588571"
       id="line2314" />
    <line
       x1="206.354926074684"
       y1="232.768555588571"
       x2="197.577044339174"
       y2="235.909331894562"
       id="line2316" />
    <line
       x1="197.577044339174"
       y1="235.909331894562"
       x2="188.533580591532"
       y2="238.174601638305"
       id="line2318" />
    <line
       x1="188.533580591532"
       y1="238.174601638305"
       x2="179.311628331308"
       y2="239.542549033859"
       id="line2320" />
    <line
       x1="179.311628331308"
       y1="239.542549033859"
       x2="170.0"
       y2="239.999999999998"
       id="line2322" />
    <line
       x1="170.0"
       y1="239.999999999998"
       x2="160.688371668692"
       y2="239.54254903386"
       id="line2324" />
    <line
       x1="160.688371668692"
       y1="239.54254903386"
       x2="151.466419408468"
       y2="238.174601638305"
       id="line2326" />
    <line
       x1="151.466419408468"
       y1="238.174601638305"
       x2="142.422955660826"
       y2="235.90933189456"
       id="line2328" />
    <line
       x1="142.422955660826"
       y1="235.90933189456"
       x2="133.645073925317"
       y2="232.768555588572"
       id="line2330" />
    <line
       x1="133.645073925317"
       y1="232.768555588572"
       x2="125.21731000153"
       y2="228.782520113095"
       id="line2332" />
    <line
       x1="125.21731000153"
       y1="228.782520113095"
       x2="117.220827863138"
       y2="223.989613168741"
       id="line2334" />
    <line
       x1="117.220827863138"
       y1="223.989613168741"
       x2="109.732638004454"
       y2="218.43599306946"
       id="line2336" />
    <line
       x1="109.732638004454"
       y1="218.43599306946"
       x2="102.824855787278"
       y2="212.175144212723"
       id="line2338" />
    <line
       x1="102.824855787278"
       y1="212.175144212723"
       x2="96.5640069305401"
       y2="205.267361995546"
       id="line2340" />
    <line
       x1="96.5640069305401"
       y1="205.267361995546"
       x2="91.0103868312583"
       y2="197.779172136862"
       id="line2342" />
    <line
       x1="91.0103868312583"
       y1="197.779172136862"
       x2="86.2174798869064"
       y2="189.78268999847"
       id="line2344" />
    <line
       x1="86.2174798869064"
       y1="189.78268999847"
       x2="82.2314444114278"
       y2="181.354926074683"
       id="line2346" />
    <line
       x1="82.2314444114278"
       y1="181.354926074683"
       x2="79.0906681054403"
       y2="172.577044339174"
       id="line2348" />
    <line
       x1="79.0906681054403"
       y1="172.577044339174"
       x2="76.8253983616933"
       y2="163.533580591532"
       id="line2350" />
    <line
       x1="76.8253983616933"
       y1="163.533580591532"
       x2="75.4574509661414"
       y2="154.311628331308"
       id="line2352" />
    <line
       x1="75.4574509661414"
       y1="154.311628331308"
       x2="75.0000000000001"
       y2="145.0"
       id="line2354" />
    <line
       x1="75.0000000000001"
       y1="145.0"
       x2="75.4574509661414"
       y2="135.688371668692"
       id="line2356" />
    <line
       x1="75.4574509661414"
       y1="135.688371668692"
       x2="76.8253983616933"
       y2="126.466419408468"
       id="line2358" />
    <line
       x1="76.8253983616933"
       y1="126.466419408468"
       x2="79.0906681054402"
       y2="117.422955660826"
       id="line2360" />
    <line
       x1="79.0906681054402"
       y1="117.422955660826"
       x2="82.2314444114278"
       y2="108.645073925316"
       id="line2362" />
    <line
       x1="82.2314444114278"
       y1="108.645073925316"
       x2="86.2174798869065"
       y2="100.21731000153"
       id="line2364" />
    <line
       x1="86.2174798869065"
       y1="100.21731000153"
       x2="91.0103868312583"
       y2="92.2208278631377"
       id="line2366" />
    <line
       x1="91.0103868312583"
       y1="92.2208278631377"
       x2="96.5640069305401"
       y2="84.7326380044536"
       id="line2368" />
    <line
       x1="96.5640069305401"
       y1="84.7326380044536"
       x2="102.824855787278"
       y2="77.8248557872781"
       id="line2370" />
    <line
       x1="102.824855787278"
       y1="77.8248557872781"
       x2="109.732638004454"
       y2="71.56400693054"
       id="line2372" />
    <line
       x1="109.732638004454"
       y1="71.56400693054"
       x2="117.220827863138"
       y2="66.0103868312582"
       id="line2374" />
    <line
       x1="117.220827863138"
       y1="66.0103868312582"
       x2="125.21731000153"
       y2="61.2174798869064"
       id="line2376" />
    <line
       x1="125.21731000153"
       y1="61.2174798869064"
       x2="133.645073925317"
       y2="57.2314444114277"
       id="line2378" />
    <line
       x1="133.645073925317"
       y1="57.2314444114277"
       x2="142.422955660826"
       y2="54.0906681054404"
       id="line2380" />
    <line
       x1="142.422955660826"
       y1="54.0906681054404"
       x2="151.466419408468"
       y2="51.8253983616932"
       id="line2382" />
    <line
       x1="151.466419408468"
       y1="51.8253983616932"
       x2="160.688371668692"
       y2="50.4574509661412"
       id="line2384" />
    <line
       x1="160.688371668692"
       y1="50.4574509661412"
       x2="170.0"
       y2="50.0000000000001"
       id="line2386" />
    <line
       x1="170.0"
       y1="50.0000000000001"
       x2="179.311628331308"
       y2="50.4574509661412"
       id="line2388" />
    <line
       x1="179.311628331308"
       y1="50.4574509661412"
       x2="188.533580591532"
       y2="51.8253983616931"
       id="line2390" />
    <line
       x1="188.533580591532"
       y1="51.8253983616931"
       x2="197.577044339174"
       y2="54.0906681054402"
       id="line2392" />
    <line
       x1="197.577044339174"
       y1="54.0906681054402"
       x2="206.354926074684"
       y2="57.2314444114277"
       id="line2394" />
    <line
       x1="206.354926074684"
       y1="57.2314444114277"
       x2="214.78268999847"
       y2="61.2174798869063"
       id="line2396" />
    <line
       x1="214.78268999847"
       y1="61.2174798869063"
       x2="222.779172136862"
       y2="66.0103868312582"
       id="line2398" />
    <line
       x1="222.779172136862"
       y1="66.0103868312582"
       x2="230.267361995546"
       y2="71.56400693054"
       id="line2400" />
    <line
       x1="230.267361995546"
       y1="71.56400693054"
       x2="237.175144212722"
       y2="77.824855787278"
       id="line2402" />
    <line
       x1="237.175144212722"
       y1="77.824855787278"
       x2="243.43599306946"
       y2="84.7326380044539"
       id="line2404" />
    <line
       x1="243.43599306946"
       y1="84.7326380044539"
       x2="248.989613168742"
       y2="92.220827863138"
       id="line2406" />
    <line
       x1="248.989613168742"
       y1="92.220827863138"
       x2="253.782520113094"
       y2="100.21731000153"
       id="line2408" />
    <line
       x1="253.782520113094"
       y1="100.21731000153"
       x2="257.768555588572"
       y2="108.645073925317"
       id="line2410" />
    <line
       x1="257.768555588572"
       y1="108.645073925317"
       x2="260.90933189456"
       y2="117.422955660826"
       id="line2412" />
    <line
       x1="260.90933189456"
       y1="117.422955660826"
       x2="263.174601638307"
       y2="126.466419408468"
       id="line2414" />
    <line
       x1="263.174601638307"
       y1="126.466419408468"
       x2="264.542549033859"
       y2="135.688371668692"
       id="line2416" />
    <line
       x1="264.542549033859"
       y1="135.688371668692"
       x2="265.0"
       y2="145.0"
       id="line2418" />
    <line
       x1="265.0"
       y1="145.0"
       x2="264.542549033859"
       y2="154.311628331308"
       id="line2420" />
    <line
       x1="264.542549033859"
       y1="154.311628331308"
       x2="263.174601638307"
       y2="163.533580591532"
       id="line2422" />
    <line
       x1="263.174601638307"
       y1="163.533580591532"
       x2="260.90933189456"
       y2="172.577044339174"
       id="line2424" />
    <line
       x1="260.90933189456"
       y1="172.577044339174"
       x2="257.768555588572"
       y2="181.354926074683"
       id="line2426" />
    <line
       x1="257.768555588572"
       y1="181.354926074683"
       x2="253.782520113094"
       y2="189.78268999847"
       id="line2428" />
    <text
       xml:space="preserve"
       style="font-size:11.28888893px;font-style:normal;font-variant:normal;font-weight:bold;font-stretch:normal;line-height:125%;letter-spacing:0px;word-spacing:0px;fill:#000000;fill-opacity:1;stroke:none;font-family:Scriber Bold Stencil;-inkscape-font-specification:Scriber Bold Stencil Bold"
       x="70.778992"
       y="-483.6116"
       id="text3603"
       sodipodi:linespacing="125%"
       transform="matrix(0,1,-1,0,0,0)"><tspan
         sodipodi:role="line"
         id="tspan3605"
         x="70.778992"
         y="-483.6116"
         style="font-size:54.1866684px;fill:none;stroke:#0000ff;stroke-width:1;stroke-miterlimit:4;stroke-dasharray:none">golden</tspan><tspan
         sodipodi:role="line"
         x="70.778992"
         y="-415.87827"
         id="tspan3607"
         style="font-size:54.1866684px;fill:none;stroke:#0000ff;stroke-width:1;stroke-miterlimit:4;stroke-dasharray:none">dog</tspan></text>
  </g>
  <g
     id="face2"
     fill="none"
     stroke="rgb(0,0,255)"
     stroke-width="1"
     stroke-miterlimit="4"
     stroke-dasharray="none"
     stroke-linejoin="round"
     stroke-linecap="round" />
</svg>
